<svg xmlns="http://www.w3.org/2000/svg" width="360" height="235.02"><g font-family="Raleway" font-size="40" letter-spacing="0" text-anchor="middle" word-spacing="0"><text x="471.76" y="559.15" style="-inkscape-font-specification:Raleway;line-height:125;text-align:center" fill="#c8c8c8" transform="translate(-62.857 -506.863) translate(-131.01)"><tspan x="471.76" y="559.15" style="-inkscape-font-specification:Raleway" fill="#c8c8c8" font-family="Raleway" font-size="15.8">Give speeches.</tspan></text><text y="578.94" x="471.86" style="-inkscape-font-specification:Raleway;line-height:125;text-align:center" fill="#c8c8c8" transform="translate(-62.857 -506.863) translate(-131.01)"><tspan y="578.94" x="471.86" style="-inkscape-font-specification:Raleway" fill="#c8c8c8" font-family="Raleway" font-size="15.8">Scroll your text</tspan></text><text x="451.63" y="598.92" style="-inkscape-font-specification:Raleway;line-height:125;text-align:center" fill="#c8c8c8" transform="translate(-62.857 -506.863) translate(-131.01)"><tspan x="451.63" y="598.92" style="-inkscape-font-specification:Raleway" fill="#c8c8c8" font-family="Raleway" font-size="15.8">with your</tspan></text><text y="618.9" x="448.9" style="-inkscape-font-specification:Raleway;line-height:125;text-align:center" fill="#c8c8c8" transform="translate(-62.857 -506.863) translate(-131.01)"><tspan y="618.9" x="448.9" style="-inkscape-font-specification:Raleway" fill="#c8c8c8" font-family="Raleway" font-size="15.8">personal</tspan></text><text y="781.7" x="-144.87" style="-inkscape-font-specification:Raleway;line-height:125;text-align:center" fill="#c8c8c8" transform="matrix(1 0 0 .999 382.991 -649.651)"><tspan y="781.7" x="-144.87" style="-inkscape-font-specification:Raleway" fill="#c8c8c8" font-family="Raleway" font-size="15.8">tele</tspan></text><text x="-103.44" y="781.7" style="-inkscape-font-specification:Raleway;line-height:125;text-align:center" fill="#5bc0de" transform="matrix(1 0 0 .999 382.991 -649.651)"><tspan x="-103.44" y="781.7" style="-inkscape-font-specification:Raleway" fill="#5bc0de" font-family="Raleway" font-size="15.8">prompt</tspan></text><text y="781.7" x="-66.71" style="-inkscape-font-specification:Raleway;line-height:125;text-align:center" fill="#c8c8c8" transform="matrix(1 0 0 .999 382.991 -649.651)"><tspan y="781.7" x="-66.71" style="-inkscape-font-specification:Raleway" fill="#c8c8c8" font-family="Raleway" font-size="15.8">er.</tspan></text><text x="456.95" y="539.17" style="-inkscape-font-specification:Raleway;line-height:125;text-align:center" fill="#c8c8c8" transform="translate(-62.857 -506.863) translate(-131.01)"><tspan x="456.95" y="539.17" style="-inkscape-font-specification:Raleway" fill="#c8c8c8" font-family="Raleway" font-size="15.8">Play music.</tspan></text></g><path d="M232.003.617c-21.56 0-41.46 17.57-39.02 39l4.62 40.66c15.67 6.93 26.65 22.58 26.65 40.78 0 11.6-4.47 22.15-11.76 30.08 6.93 8.94 17.15 14.7 29.48 14.7h10.28v-2.21c0-2.56 2.06-4.61 4.62-4.61h37.54c2.56 0 4.62 2.06 4.62 4.61v2.21h10.28c21.56 0 36.58-17.57 39.02-39l9.91-87.22c2.44-21.43-17.46-39-39.02-39h-87.21z" style="-inkscape-font-specification:Sans;block-progression:tb;line-height:normal;text-align:start;text-indent:0;text-transform:none" font-family="Sans" stroke-width="3.1" stroke="#f5f5f5" fill="none"/><path d="M40.769-1.3c-22.419 0-43.123 18.322-40.562 40.777l9.909 87.202c2.522 22.042 18.163 40.403 40.562 40.403h8.747v-3.129h-8.747c-20.724 0-35.125-16.826-37.489-37.628l-9.909-87.222c-2.325-20.388 16.765-37.274 37.489-37.274h87.232c20.724 0 39.814 16.885 37.489 37.274l-4.669 41.151c1.064-.492 2.147-.945 3.27-1.358l4.472-39.419c2.561-22.475-18.144-40.777-40.562-40.777h-87.232zm105.277 151.477c-6.639 8.403-16.331 13.776-28.013 13.776h-8.747v3.129h8.747c12.529 0 22.97-5.727 30.161-14.642-.749-.728-1.458-1.496-2.147-2.283z" style="-inkscape-font-specification:Sans;block-progression:tb;line-height:normal;text-align:start;text-indent:0;text-transform:none" fill="#f5f5f5" font-family="Sans"/><path d="M-5.69 897.69c-1.3 0-2.34 1.04-2.34 2.34v1.97c0 1.3 1.04 2.34 2.34 2.34h6.19v31.03h6.72v-31.03h6.16c1.3 0 2.34-1.04 2.34-2.34v-1.97c0-1.3-1.04-2.34-2.34-2.34h-19.06z" stroke-width="1.6" stroke="#c8c8c8" fill="none" transform="matrix(1.97 0 0 1.968 76.781 -1607.995)"/><path d="M239.963 233.467h-120.87c0-33.29 27.06-60.28 60.43-60.28 33.38 0 60.43 26.99 60.43 60.28z" stroke-width="3.1" stroke="#5bc0de" fill="none"/><path d="M40.773-.983c-22.41 0-43.12 18.32-40.56 40.78l9.91 87.22c2.51 22.04 18.15 40.41 40.56 40.41h8.74v-3.14h-8.74c-20.72 0-35.11-16.84-37.48-37.65l-9.91-87.2c-2.32-20.39 16.77-37.28 37.48-37.28h87.21c20.72 0 39.81 16.89 37.48 37.28l-4.68 41.15c1.07-.49 2.15-.94 3.26-1.35l4.49-39.43c2.56-22.46-18.15-40.78-40.56-40.78h-87.21zm105.25 151.51c-6.64 8.4-16.32 13.78-28 13.78h-8.74v3.14h8.74c12.53 0 22.96-5.73 30.16-14.64-.75-.74-1.46-1.49-2.15-2.28z" style="-inkscape-font-specification:Sans;block-progression:tb;line-height:normal;text-align:start;text-indent:0;text-transform:none" fill="#f5f5f5" font-family="Sans"/><path d="M65.583 159.017c-2.56 0-4.62 2.06-4.62 4.61v3.88c0 2.56 2.06 4.61 4.62 4.61h12.19v61.08h13.23v-61.08h12.13c2.56 0 4.62-2.06 4.62-4.61v-3.88c0-2.56-2.06-4.61-4.62-4.61h-37.54zm191.26 0c-2.56 0-4.62 2.06-4.62 4.61v3.88c0 2.56 2.06 4.61 4.62 4.61h12.19v61.08h13.23v-61.08h12.13c2.56 0 4.62-2.06 4.62-4.61v-3.88c0-2.56-2.06-4.61-4.62-4.61h-37.54z" stroke-width="3.1" stroke="#c8c8c8" fill="none"/><path transform="matrix(.703 0 0 .701 578.783 -90.497)" d="M-504.29 301.65a63.57 63.57 0 1 1-127.14 0 63.57 63.57 0 1 1 127.14 0z" stroke-width="4.4" stroke="#5bc0de" fill="none"/><g font-family="Raleway" font-size="40" letter-spacing="0" text-anchor="middle" word-spacing="0"><text y="559.15" x="471.76" style="-inkscape-font-specification:Raleway;line-height:125;text-align:center" fill="#c8c8c8" transform="translate(-62.857 -506.863) translate(-323.949)"><tspan y="559.15" x="471.76" style="-inkscape-font-specification:Raleway" fill="#c8c8c8" font-family="Raleway" font-size="15.8">Give speeches.</tspan></text><text x="471.86" y="578.94" style="-inkscape-font-specification:Raleway;line-height:125;text-align:center" fill="#c8c8c8" transform="translate(-62.857 -506.863) translate(-323.949)"><tspan x="471.86" y="578.94" style="-inkscape-font-specification:Raleway" fill="#c8c8c8" font-family="Raleway" font-size="15.8">Scroll your text</tspan></text><text y="598.92" x="451.63" style="-inkscape-font-specification:Raleway;line-height:125;text-align:center" fill="#c8c8c8" transform="translate(-62.857 -506.863) translate(-323.949)"><tspan y="598.92" x="451.63" style="-inkscape-font-specification:Raleway" fill="#c8c8c8" font-family="Raleway" font-size="15.8">with your</tspan></text><text x="448.9" y="618.9" style="-inkscape-font-specification:Raleway;line-height:125;text-align:center" fill="#c8c8c8" transform="translate(-62.857 -506.863) translate(-323.949)"><tspan x="448.9" y="618.9" style="-inkscape-font-specification:Raleway" fill="#c8c8c8" font-family="Raleway" font-size="15.8">personal</tspan></text><text x="-144.87" y="781.7" style="-inkscape-font-specification:Raleway;line-height:125;text-align:center" fill="#c8c8c8" transform="matrix(1 0 0 .999 190.052 -649.651)"><tspan x="-144.87" y="781.7" style="-inkscape-font-specification:Raleway" fill="#c8c8c8" font-family="Raleway" font-size="15.8">tele</tspan></text><text y="781.7" x="-103.44" style="-inkscape-font-specification:Raleway;line-height:125;text-align:center" fill="#5bc0de" transform="matrix(1 0 0 .999 190.052 -649.651)"><tspan y="781.7" x="-103.44" style="-inkscape-font-specification:Raleway" fill="#5bc0de" font-family="Raleway" font-size="15.8">prompt</tspan></text><text x="-66.71" y="781.7" style="-inkscape-font-specification:Raleway;line-height:125;text-align:center" fill="#c8c8c8" transform="matrix(1 0 0 .999 190.052 -649.651)"><tspan x="-66.71" y="781.7" style="-inkscape-font-specification:Raleway" fill="#c8c8c8" font-family="Raleway" font-size="15.8">er.</tspan></text><text y="539.17" x="456.95" style="-inkscape-font-specification:Raleway;line-height:125;text-align:center" fill="#c8c8c8" transform="translate(-62.857 -506.863) translate(-323.949)"><tspan y="539.17" x="456.95" style="-inkscape-font-specification:Raleway" fill="#c8c8c8" font-family="Raleway" font-size="15.8">Play music.</tspan></text></g></svg>