<svg xmlns="http://www.w3.org/2000/svg" width="360" height="236"><style>.s0{-inkscape-font-specification:Raleway;fill:#c8c8c8;font-family:Raleway;font-size:38;letter-spacing:0;line-height:125;word-spacing:0;}.s1{font-size:16;}.s2{-inkscape-font-specification:Raleway;fill:#5bc0de;font-family:Raleway;font-size:38;letter-spacing:0;line-height:125;word-spacing:0;}.s3{fill:#5bc0de;font-size:16;}.s4{fill:none;stroke-width:3;stroke:#c8c8c8;}</style><path d="M224.038 34.319v-11.131h4.664c.494 0 .948.102 1.363.306.415.204.772.476 1.071.815.299.34.533.721.701 1.144.168.423.252.854.252 1.293 0 .46-.079.904-.236 1.333-.158.429-.381.81-.67 1.144-.289.334-.636.601-1.04.799-.404.199-.853.298-1.347.298h-3.34v3.998zm1.418-5.252h3.262c.294 0 .56-.06.796-.18s.438-.287.607-.502c.168-.214.299-.462.394-.745.095-.282.142-.58.142-.894 0-.324-.055-.627-.165-.909-.11-.282-.257-.528-.441-.737-.184-.209-.399-.371-.646-.486-.247-.115-.507-.172-.78-.172h-3.167zm8.148-6.193h1.386v9.328c0 .303.081.541.244.714.163.172.391.259.685.259.116 0 .252-.018.41-.055.158-.037.305-.081.441-.133l.221 1.113c-.231.094-.504.172-.819.235-.315.063-.594.094-.835.094-.536 0-.958-.152-1.268-.455-.31-.303-.465-.726-.465-1.27zm6.59 11.602c-.41 0-.788-.065-1.134-.196-.347-.131-.646-.309-.898-.533-.252-.225-.449-.491-.591-.799-.142-.308-.213-.635-.213-.98 0-.387.084-.74.252-1.058.168-.319.407-.59.717-.815.31-.225.677-.397 1.103-.517.425-.12.89-.18 1.394-.18.399 0 .803.037 1.213.11.41.073.772.172 1.087.298v-.658c0-.669-.189-1.195-.567-1.576-.378-.381-.914-.572-1.607-.572-.83 0-1.702.319-2.615.956l-.457-.894c.536-.355 1.067-.622 1.592-.799.525-.178 1.071-.266 1.639-.266 1.05 0 1.88.287 2.49.862.609.575.914 1.385.914 2.43v3.34c0 .324.147.491.441.502v1.191l-.299.047-.268.016c-.231 0-.457-.063-.678-.188-.221-.125-.341-.34-.362-.643l-.032-.58c-.189.251-.404.47-.646.658-.242.188-.499.345-.772.47s-.554.219-.843.282c-.289.063-.575.094-.859.094zm.347-1.035c.441 0 .872-.094 1.292-.282.42-.188.751-.418.993-.69.199-.23.299-.444.299-.643v-1.207c-.326-.125-.67-.222-1.032-.29-.362-.068-.712-.102-1.048-.102-.714 0-1.287.144-1.717.431-.431.287-.646.682-.646 1.184 0 .209.042.41.126.603.084.193.205.363.362.51.158.146.352.264.583.353.231.089.494.133.788.133zm6.565 3.12c.283.031.536.047.756.047.094 0 .183-.021.268-.063.084-.042.179-.141.284-.298.105-.157.226-.387.362-.69.137-.303.305-.716.504-1.238l-3.482-8.184h1.434l2.805 6.945 2.552-6.945h1.323l-4.033 10.331c-.189.491-.462.844-.819 1.058-.357.214-.777.322-1.261.322l-.346-.016-.346-.063zm24.563-2.242h-1.386v-4.578c0-.857-.139-1.489-.418-1.897-.278-.408-.691-.611-1.237-.611-.567 0-1.074.201-1.52.604-.447.402-.764.922-.953 1.56v4.923h-1.387v-4.578c0-.878-.137-1.516-.41-1.913-.273-.397-.683-.596-1.229-.596-.557 0-1.061.196-1.513.588-.452.392-.772.912-.961 1.56v4.938h-1.387v-8.184h1.26v1.756c.336-.606.772-1.074 1.308-1.403.536-.329 1.14-.494 1.812-.494.693 0 1.242.186 1.647.557.404.371.654.849.748 1.435.735-1.328 1.781-1.991 3.136-1.991.473 0 .869.086 1.19.259.32.173.575.413.764.721.189.308.326.671.41 1.089.084.418.126.873.126 1.364zm4.632.157c-.861 0-1.513-.287-1.954-.862-.441-.575-.662-1.432-.662-2.571v-4.907h1.387v4.64c0 1.672.583 2.508 1.749 2.508.567 0 1.1-.18 1.599-.541.499-.361.869-.854 1.111-1.481v-5.127h1.387v6.491c0 .324.147.491.441.502v1.191l-.307.047-.245.016c-.315 0-.562-.076-.741-.227-.179-.152-.278-.353-.299-.604l-.048-.988c-.368.617-.851 1.089-1.45 1.419-.599.329-1.255.494-1.969.494zm9.887 0c-.662 0-1.313-.102-1.954-.306-.641-.204-1.192-.499-1.655-.886l.599-.925c.483.366.967.64 1.45.823.483.183.993.274 1.529.274.598 0 1.074-.118 1.426-.353.352-.235.528-.567.528-.995 0-.199-.047-.369-.142-.51-.095-.141-.236-.264-.426-.368-.189-.104-.431-.198-.725-.282-.294-.084-.635-.172-1.024-.266-.494-.125-.919-.246-1.276-.361-.357-.115-.651-.251-.882-.408-.231-.157-.399-.345-.504-.565-.105-.22-.158-.491-.158-.815 0-.408.081-.771.244-1.09.163-.319.386-.585.67-.8.284-.214.617-.376 1.001-.486.383-.11.796-.165 1.237-.165.62 0 1.197.099 1.733.298.536.199.988.46 1.355.784l-.63.831c-.347-.303-.736-.53-1.166-.682-.431-.152-.872-.227-1.324-.227-.504 0-.932.107-1.284.322-.352.214-.528.557-.528 1.027 0 .188.034.345.102.471.068.126.181.235.339.329.158.094.36.178.607.251.247.073.544.152.891.235.546.126 1.022.254 1.426.384.404.131.74.285 1.008.462.268.178.467.387.599.627.131.24.197.533.197.878 0 .763-.294 1.369-.882 1.819-.588.449-1.381.674-2.379.674zm4.84-.157v-8.184h1.387v8.184zm0-9.72v-1.725h1.387v1.725zm3.05 5.613c0-.575.1-1.118.299-1.631.2-.512.483-.959.851-1.341.368-.381.806-.685 1.316-.909.509-.225 1.079-.337 1.709-.337.819 0 1.526.18 2.119.541.594.361 1.043.844 1.347 1.45l-1.355.423c-.21-.387-.504-.687-.882-.901-.378-.214-.798-.321-1.26-.321-.378 0-.735.076-1.072.227-.336.152-.625.363-.866.635-.242.272-.433.591-.575.956-.142.366-.213.768-.213 1.207 0 .428.073.831.22 1.207.147.376.344.703.591.98s.536.494.867.65c.331.157.685.235 1.063.235.242 0 .481-.034.717-.102.236-.068.452-.159.646-.274.194-.115.365-.248.512-.4.147-.152.252-.316.315-.494l1.355.408c-.126.303-.302.58-.528.831-.226.251-.491.465-.796.643-.305.178-.643.319-1.016.423-.373.105-.764.157-1.174.157-.62 0-1.187-.115-1.702-.345-.515-.23-.956-.538-1.324-.925-.368-.387-.654-.839-.859-1.356-.205-.517-.307-1.063-.307-1.638zm9.165 4.107v-1.756h1.166v1.756zM231.964 52.361c-.988 1.056-2.122 1.584-3.403 1.584-.746 0-1.437-.162-2.072-.486-.636-.324-1.184-.75-1.646-1.278-.462-.528-.827-1.131-1.095-1.811-.268-.679-.402-1.38-.402-2.101 0-.752.131-1.466.394-2.14.263-.674.625-1.27 1.087-1.787.462-.517 1.014-.928 1.654-1.231.641-.303 1.334-.455 2.08-.455 1.082 0 1.972.225 2.671.674.699.449 1.232 1.035 1.599 1.756l-1.087.753c-.336-.648-.783-1.129-1.339-1.443-.557-.314-1.182-.47-1.875-.47-.567 0-1.082.123-1.544.368-.462.246-.856.57-1.182.972-.326.402-.578.868-.756 1.395-.179.528-.268 1.074-.268 1.638 0 .596.1 1.158.3 1.686.2.528.473.993.819 1.395.347.402.756.719 1.229.949.473.23.987.345 1.544.345 1.218 0 2.316-.585 3.293-1.756v-1.537h-2.411v-1.066h3.608v5.55h-1.197zm3.147 1.505v-8.184h1.387v8.184zm0-9.72v-1.725h1.387v1.725zm5.949 9.72l-3.246-8.184h1.434l2.599 6.977 2.616-6.977h1.323l-3.246 8.184zm9.693.157c-.62 0-1.187-.112-1.702-.337-.515-.225-.956-.53-1.324-.917-.368-.387-.654-.839-.859-1.356-.205-.517-.307-1.063-.307-1.638s.102-1.119.307-1.631c.205-.512.494-.962.866-1.348.373-.387.817-.692 1.331-.917.515-.225 1.082-.337 1.702-.337.62 0 1.184.115 1.694.345.51.23.943.536 1.3.917.357.381.633.826.827 1.333.194.507.291 1.032.291 1.575l-.008.314-.023.22h-6.823c.031.408.126.779.283 1.113.158.334.362.622.615.862.252.24.538.428.859.564.32.136.659.204 1.016.204.252 0 .499-.034.741-.102.242-.068.467-.159.678-.274.21-.115.397-.256.559-.423.163-.167.286-.355.37-.565l1.197.329c-.137.303-.323.58-.559.831-.236.251-.51.468-.819.65-.31.183-.654.327-1.032.431-.378.105-.772.157-1.182.157zm2.82-4.797c-.031-.387-.129-.745-.291-1.074-.163-.329-.368-.609-.615-.839-.247-.23-.533-.41-.859-.541-.326-.131-.672-.196-1.04-.196s-.714.065-1.04.196c-.326.131-.612.314-.859.549-.247.235-.446.515-.599.839-.152.324-.244.679-.276 1.066zm9.718 4.797c-.662 0-1.313-.102-1.954-.306-.641-.204-1.192-.499-1.655-.886l.599-.925c.483.366.967.64 1.45.823.483.183.993.274 1.529.274.598 0 1.074-.118 1.426-.353.352-.235.528-.567.528-.995 0-.199-.047-.369-.142-.51-.095-.141-.236-.264-.426-.368-.189-.104-.431-.198-.725-.282-.294-.084-.635-.172-1.024-.266-.494-.125-.919-.246-1.276-.361-.357-.115-.651-.251-.882-.408-.231-.157-.399-.345-.504-.565-.105-.22-.158-.491-.158-.815 0-.408.081-.771.244-1.09.163-.319.386-.585.67-.8.284-.214.617-.376 1.001-.486.383-.11.796-.165 1.237-.165.62 0 1.197.099 1.733.298.536.199.988.46 1.355.784l-.63.831c-.347-.303-.736-.53-1.166-.682-.431-.152-.872-.227-1.324-.227-.504 0-.932.107-1.284.322-.352.214-.528.557-.528 1.027 0 .188.034.345.102.471.068.126.181.235.339.329.158.094.36.178.607.251.247.073.544.152.891.235.546.126 1.022.254 1.426.384.404.131.74.285 1.008.462.268.178.467.387.599.627.131.24.197.533.197.878 0 .763-.294 1.369-.882 1.819-.588.449-1.381.674-2.379.674zm9.268 0c-.683 0-1.284-.167-1.804-.502-.52-.334-.932-.758-1.237-1.27v4.954h-1.387v-11.523h1.229v1.536c.326-.501.749-.906 1.268-1.215.52-.308 1.095-.463 1.725-.463.567 0 1.087.115 1.56.345.473.23.882.541 1.229.933.347.392.617.844.812 1.356.194.512.292 1.045.292 1.599 0 .585-.089 1.137-.268 1.654-.179.517-.431.967-.756 1.348-.326.381-.714.685-1.166.909-.452.225-.951.337-1.497.337zm-.426-1.192c.41 0 .78-.086 1.111-.259.331-.172.614-.402.851-.69.236-.287.418-.614.544-.98.126-.366.189-.742.189-1.129 0-.408-.073-.797-.22-1.168-.147-.371-.347-.695-.599-.972s-.549-.496-.89-.658c-.341-.162-.712-.243-1.111-.243-.252 0-.512.05-.78.149-.268.099-.52.23-.756.392s-.441.355-.615.58c-.173.225-.286.462-.339.713v2.336c.115.272.262.525.441.76s.383.439.615.611c.231.173.478.308.741.408.263.099.536.149.819.149zm9.425 1.192c-.62 0-1.187-.112-1.702-.337-.515-.225-.956-.53-1.324-.917-.368-.387-.654-.839-.859-1.356-.205-.517-.307-1.063-.307-1.638s.102-1.119.307-1.631c.205-.512.494-.962.866-1.348.373-.387.817-.692 1.331-.917.515-.225 1.082-.337 1.702-.337.62 0 1.184.115 1.694.345.51.23.943.536 1.3.917.357.381.633.826.827 1.333.194.507.291 1.032.291 1.575l-.008.314-.023.22h-6.823c.031.408.126.779.283 1.113.158.334.362.622.615.862.252.24.538.428.859.564.32.136.659.204 1.016.204.252 0 .499-.034.741-.102.242-.068.467-.159.678-.274.21-.115.397-.256.559-.423.163-.167.286-.355.37-.565l1.197.329c-.137.303-.323.58-.559.831-.236.251-.51.468-.819.65-.31.183-.654.327-1.032.431-.378.105-.772.157-1.182.157zm2.82-4.797c-.031-.387-.129-.745-.291-1.074-.163-.329-.368-.609-.615-.839-.247-.23-.533-.41-.859-.541-.326-.131-.672-.196-1.04-.196s-.714.065-1.04.196c-.326.131-.612.314-.859.549-.247.235-.446.515-.599.839-.152.324-.244.679-.276 1.066zm6.504 4.797c-.62 0-1.187-.112-1.702-.337-.515-.225-.956-.53-1.324-.917-.368-.387-.654-.839-.859-1.356-.205-.517-.307-1.063-.307-1.638s.102-1.119.307-1.631c.205-.512.494-.962.866-1.348.373-.387.817-.692 1.331-.917.515-.225 1.082-.337 1.702-.337.62 0 1.184.115 1.694.345.51.23.943.536 1.3.917.357.381.633.826.827 1.333.194.507.291 1.032.291 1.575l-.008.314-.023.22h-6.823c.031.408.126.779.283 1.113.158.334.362.622.615.862.252.24.538.428.859.564.32.136.659.204 1.016.204.252 0 .499-.034.741-.102.242-.068.467-.159.678-.274.21-.115.397-.256.559-.423.163-.167.286-.355.37-.565l1.197.329c-.137.303-.323.58-.559.831-.236.251-.51.468-.819.65-.31.183-.654.327-1.032.431-.378.105-.772.157-1.182.157zm2.82-4.797c-.031-.387-.129-.745-.291-1.074-.163-.329-.368-.609-.615-.839-.247-.23-.533-.41-.859-.541-.326-.131-.672-.196-1.04-.196s-.714.065-1.04.196c-.326.131-.612.314-.859.549-.247.235-.446.515-.599.839-.152.324-.244.679-.276 1.066zm2.313.533c0-.575.1-1.118.299-1.631.2-.512.483-.959.851-1.341.368-.381.806-.685 1.316-.909.509-.225 1.079-.337 1.709-.337.819 0 1.526.18 2.119.541.594.361 1.043.844 1.347 1.45l-1.355.423c-.21-.387-.504-.687-.882-.901-.378-.214-.798-.321-1.26-.321-.378 0-.735.076-1.072.227-.336.152-.625.363-.866.635-.242.272-.433.591-.575.956-.142.366-.213.768-.213 1.207 0 .428.073.831.22 1.207.147.376.344.703.591.98s.536.494.867.65c.331.157.685.235 1.063.235.242 0 .481-.034.717-.102.236-.068.452-.159.646-.274.194-.115.365-.248.512-.4.147-.152.252-.316.315-.494l1.355.408c-.126.303-.302.58-.528.831-.226.251-.491.465-.796.643-.305.178-.643.319-1.016.423-.373.105-.764.157-1.174.157-.62 0-1.187-.115-1.702-.345-.515-.23-.956-.538-1.324-.925-.368-.387-.654-.839-.859-1.356-.205-.517-.307-1.063-.307-1.638zm16.397 4.107h-1.387v-4.578c0-.847-.147-1.476-.441-1.889-.294-.413-.725-.619-1.292-.619-.273 0-.546.055-.819.165-.273.11-.528.259-.764.447s-.447.413-.63.674c-.184.261-.323.549-.417.862v4.938h-1.387v-11.445h1.387v5.017c.325-.596.766-1.061 1.323-1.395.557-.334 1.166-.502 1.828-.502.483 0 .893.089 1.229.266.336.178.604.418.803.721.2.303.344.666.433 1.09.089.423.134.875.134 1.356zm5.766.157c-.62 0-1.187-.112-1.702-.337-.515-.225-.956-.53-1.324-.917-.368-.387-.654-.839-.859-1.356-.205-.517-.307-1.063-.307-1.638s.102-1.119.307-1.631c.205-.512.494-.962.866-1.348.373-.387.817-.692 1.331-.917.515-.225 1.082-.337 1.702-.337.62 0 1.184.115 1.694.345.51.23.943.536 1.3.917.357.381.633.826.827 1.333.194.507.291 1.032.291 1.575l-.008.314-.023.22h-6.823c.031.408.126.779.283 1.113.158.334.362.622.615.862.252.24.538.428.859.564.32.136.659.204 1.016.204.252 0 .499-.034.741-.102.242-.068.467-.159.678-.274.21-.115.397-.256.559-.423.163-.167.286-.355.37-.565l1.197.329c-.137.303-.323.58-.559.831-.236.251-.51.468-.819.65-.31.183-.654.327-1.032.431-.378.105-.772.157-1.182.157zm2.82-4.797c-.031-.387-.129-.745-.291-1.074-.163-.329-.368-.609-.615-.839-.247-.23-.533-.41-.859-.541-.326-.131-.672-.196-1.04-.196s-.714.065-1.04.196c-.326.131-.612.314-.859.549-.247.235-.446.515-.599.839-.152.324-.244.679-.276 1.066zm5.748 4.797c-.662 0-1.313-.102-1.954-.306-.641-.204-1.192-.499-1.655-.886l.599-.925c.483.366.967.64 1.45.823.483.183.993.274 1.529.274.598 0 1.074-.118 1.426-.353.352-.235.528-.567.528-.995 0-.199-.047-.369-.142-.51-.095-.141-.236-.264-.426-.368-.189-.104-.431-.198-.725-.282-.294-.084-.635-.172-1.024-.266-.494-.125-.919-.246-1.276-.361-.357-.115-.651-.251-.882-.408-.231-.157-.399-.345-.504-.565-.105-.22-.158-.491-.158-.815 0-.408.081-.771.244-1.09.163-.319.386-.585.67-.8.284-.214.617-.376 1.001-.486.383-.11.796-.165 1.237-.165.62 0 1.197.099 1.733.298.536.199.988.46 1.355.784l-.63.831c-.347-.303-.736-.53-1.166-.682-.431-.152-.872-.227-1.324-.227-.504 0-.932.107-1.284.322-.352.214-.528.557-.528 1.027 0 .188.034.345.102.471.068.126.181.235.339.329.158.094.36.178.607.251.247.073.544.152.891.235.546.126 1.022.254 1.426.384.404.131.74.285 1.008.462.268.178.467.387.599.627.131.24.197.533.197.878 0 .763-.294 1.369-.882 1.819-.588.449-1.381.674-2.379.674zm4.745-.157v-1.756h1.166v1.756zM230.64 64.431c-.126-.146-.294-.288-.504-.423-.21-.136-.446-.259-.709-.368-.263-.11-.549-.199-.859-.266-.31-.068-.633-.102-.969-.102-.872 0-1.51.162-1.914.486-.404.324-.607.768-.607 1.332 0 .303.058.554.173.753.116.199.297.368.544.51.247.141.554.264.922.368.368.104.804.214 1.308.329.578.126 1.1.269 1.568.431.467.162.867.363 1.198.604.331.241.583.533.756.878.173.345.26.768.26 1.27 0 .533-.105.995-.315 1.387-.21.392-.496.716-.859.972-.362.256-.79.444-1.284.564-.494.12-1.029.18-1.607.18-.861 0-1.678-.133-2.45-.4-.772-.266-1.473-.656-2.103-1.168l.678-1.192c.168.178.386.355.654.533.268.178.572.337.914.478.341.141.709.256 1.103.345.394.089.806.133 1.237.133.799 0 1.418-.141 1.859-.423.441-.282.662-.705.662-1.27 0-.314-.071-.577-.213-.792-.142-.214-.349-.4-.622-.556-.273-.157-.612-.295-1.016-.416-.405-.12-.864-.243-1.379-.368-.567-.136-1.066-.282-1.497-.439-.431-.157-.79-.345-1.079-.565-.289-.22-.507-.486-.654-.8-.147-.314-.22-.69-.22-1.129 0-.533.1-1.003.299-1.411.2-.408.478-.752.835-1.035.357-.282.782-.494 1.276-.635.494-.141 1.029-.212 1.607-.212.757 0 1.439.115 2.049.345.609.23 1.15.538 1.623.925zm2.289 4.688c0-.575.1-1.118.299-1.631.2-.512.483-.959.851-1.341.368-.381.806-.685 1.316-.909.509-.225 1.079-.337 1.709-.337.819 0 1.526.18 2.119.541.594.361 1.043.844 1.347 1.45l-1.355.423c-.21-.387-.504-.687-.882-.901-.378-.214-.798-.321-1.26-.321-.378 0-.735.076-1.072.227-.336.152-.625.363-.866.635-.242.272-.433.591-.575.956-.142.366-.213.768-.213 1.207 0 .428.073.831.22 1.207.147.376.344.703.591.98s.536.494.867.65c.331.157.685.235 1.063.235.242 0 .481-.034.717-.102.236-.068.452-.159.646-.274.194-.115.365-.248.512-.4.147-.152.252-.316.315-.494l1.355.408c-.126.303-.302.58-.528.831-.226.251-.491.465-.796.643-.305.178-.643.319-1.016.423-.373.105-.764.157-1.174.157-.62 0-1.187-.115-1.702-.345-.515-.23-.956-.538-1.324-.925-.368-.387-.654-.839-.859-1.356-.205-.517-.307-1.063-.307-1.638zm13.608-2.869c-.693.021-1.305.199-1.836.533-.53.334-.906.8-1.126 1.395v5.048h-1.387v-8.184h1.292v1.897c.284-.564.657-1.032 1.119-1.403.462-.371.956-.557 1.481-.557h.268l.189.016zm4.969 7.134c-.62 0-1.185-.115-1.694-.345-.509-.23-.945-.538-1.308-.925-.362-.387-.643-.836-.843-1.348-.2-.512-.299-1.05-.299-1.615 0-.575.102-1.118.307-1.63.205-.512.488-.962.851-1.348.362-.387.798-.695 1.308-.925.509-.23 1.069-.345 1.678-.345s1.171.115 1.686.345c.515.23.953.538 1.316.925.362.387.646.836.851 1.348.205.512.307 1.056.307 1.63 0 .565-.1 1.103-.299 1.615-.2.512-.483.962-.851 1.348-.368.387-.806.695-1.316.925-.509.23-1.074.345-1.694.345zm-2.726-4.217c0 .429.071.826.213 1.192.142.366.336.684.583.956.247.272.536.486.866.643.331.157.685.235 1.064.235.378 0 .732-.078 1.063-.235.331-.157.623-.374.875-.65.252-.277.449-.601.591-.972.142-.371.213-.771.213-1.199 0-.418-.071-.813-.213-1.184-.142-.371-.339-.695-.591-.972-.252-.277-.544-.494-.875-.65-.331-.157-.685-.235-1.063-.235-.378 0-.733.081-1.064.243-.331.162-.62.381-.866.658-.247.277-.441.601-.583.972-.142.371-.213.771-.213 1.199zm8.55-7.384h1.386v9.328c0 .303.081.541.244.714.163.172.391.259.685.259.116 0 .252-.018.41-.055.158-.037.305-.081.441-.133l.221 1.113c-.231.094-.504.172-.819.235-.315.063-.594.094-.835.094-.536 0-.958-.152-1.268-.455-.31-.303-.465-.726-.465-1.27zm4.401 0h1.386v9.328c0 .303.081.541.244.714.163.172.391.259.685.259.116 0 .252-.018.41-.055.158-.037.305-.081.441-.133l.221 1.113c-.231.094-.504.172-.819.235-.315.063-.594.094-.835.094-.536 0-.958-.152-1.268-.455-.31-.303-.465-.726-.465-1.27zm8.701 13.687c.283.031.536.047.756.047.094 0 .183-.021.268-.063.084-.042.179-.141.284-.298.105-.157.226-.387.362-.69.137-.303.305-.716.504-1.238l-3.482-8.184h1.434l2.805 6.945 2.552-6.945h1.323l-4.033 10.331c-.189.491-.462.844-.819 1.058-.357.214-.777.322-1.261.322l-.346-.016-.346-.063zm11.817-2.085c-.62 0-1.185-.115-1.694-.345-.509-.23-.945-.538-1.308-.925-.362-.387-.643-.836-.843-1.348-.2-.512-.299-1.05-.299-1.615 0-.575.102-1.118.307-1.63.205-.512.488-.962.851-1.348.362-.387.798-.695 1.308-.925.509-.23 1.069-.345 1.678-.345s1.171.115 1.686.345c.515.23.953.538 1.316.925.362.387.646.836.851 1.348.205.512.307 1.056.307 1.63 0 .565-.1 1.103-.299 1.615-.2.512-.483.962-.851 1.348-.368.387-.806.695-1.316.925-.509.23-1.074.345-1.694.345zm-2.726-4.217c0 .429.071.826.213 1.192.142.366.336.684.583.956.247.272.536.486.866.643.331.157.685.235 1.064.235.378 0 .732-.078 1.063-.235.331-.157.623-.374.875-.65.252-.277.449-.601.591-.972.142-.371.213-.771.213-1.199 0-.418-.071-.813-.213-1.184-.142-.371-.339-.695-.591-.972-.252-.277-.544-.494-.875-.65-.331-.157-.685-.235-1.063-.235-.378 0-.733.081-1.064.243-.331.162-.62.381-.866.658-.247.277-.441.601-.583.972-.142.371-.213.771-.213 1.199zm11.056 4.217c-.861 0-1.513-.287-1.954-.862-.441-.575-.662-1.432-.662-2.571v-4.907h1.387v4.64c0 1.672.583 2.508 1.749 2.508.567 0 1.1-.18 1.599-.541.499-.361.869-.854 1.111-1.481v-5.127h1.387v6.491c0 .324.147.491.441.502v1.191l-.307.047-.245.016c-.315 0-.562-.076-.741-.227-.179-.152-.278-.353-.299-.604l-.048-.988c-.368.617-.851 1.089-1.45 1.419-.599.329-1.255.494-1.969.494zm11.321-7.134c-.693.021-1.305.199-1.836.533-.53.334-.906.8-1.126 1.395v5.048h-1.387v-8.184h1.292v1.897c.284-.564.657-1.032 1.119-1.403.462-.371.956-.557 1.481-.557h.268l.189.016zm9.584 6.569l-.331.149-.465.172c-.173.057-.362.104-.567.141-.205.037-.418.055-.638.055-.504 0-.94-.138-1.308-.415-.368-.277-.552-.708-.552-1.293v-5.503h-1.119v-1.082h1.119v-2.728h1.387v2.728h1.843v1.082h-1.843v5.08c.021.303.121.522.299.658.179.136.389.204.63.204.273 0 .523-.044.748-.133.226-.089.381-.159.465-.212zm4.879.565c-.62 0-1.187-.112-1.702-.337-.515-.225-.956-.53-1.324-.917-.368-.387-.654-.839-.859-1.356-.205-.517-.307-1.063-.307-1.638s.102-1.119.307-1.631c.205-.512.494-.962.866-1.348.373-.387.817-.692 1.331-.917.515-.225 1.082-.337 1.702-.337.62 0 1.184.115 1.694.345.51.23.943.536 1.3.917.357.381.633.826.827 1.333.194.507.291 1.032.291 1.575l-.008.314-.023.22h-6.823c.031.408.126.779.283 1.113.158.334.362.622.615.862.252.24.538.428.859.564.32.136.659.204 1.016.204.252 0 .499-.034.741-.102.242-.068.467-.159.678-.274.21-.115.397-.256.559-.423.163-.167.286-.355.37-.565l1.197.329c-.137.303-.323.58-.559.831-.236.251-.51.468-.819.65-.31.183-.654.327-1.032.431-.378.105-.772.157-1.182.157zm2.82-4.797c-.031-.387-.129-.745-.291-1.074-.163-.329-.368-.609-.615-.839-.247-.23-.533-.41-.859-.541-.326-.131-.672-.196-1.04-.196s-.714.065-1.04.196c-.326.131-.612.314-.859.549-.247.235-.446.515-.599.839-.152.324-.244.679-.276 1.066zm3.369-3.543l2.253 3.01.126.251.142-.251 2.237-3.01h1.465l-3.072 4.107 3.088 4.076h-1.465l-2.253-2.995-.142-.235-.126.235-2.253 2.995h-1.465l3.088-4.076-3.073-4.107zm11.766 7.776l-.331.149-.465.172c-.173.057-.362.104-.567.141-.205.037-.418.055-.638.055-.504 0-.94-.138-1.308-.415-.368-.277-.552-.708-.552-1.293v-5.503h-1.119v-1.082h1.119v-2.728h1.387v2.728h1.843v1.082h-1.843v5.08c.021.303.121.522.299.658.179.136.389.204.63.204.273 0 .523-.044.748-.133.226-.089.381-.159.465-.212zM234.154 84.59h1.34l-3.498 8.184h-1.15l-1.655-3.998-1.638 3.998h-1.151l-3.498-8.184h1.323l2.837 6.82 1.386-3.402-1.418-3.402h1.15l1.008 2.618 1.009-2.618h1.15l-1.403 3.402 1.387 3.402zm2.619 8.184v-8.184h1.387v8.184zm0-9.72v-1.725h1.387v1.725zm7.84 9.312l-.331.149-.465.172c-.173.057-.362.104-.567.141-.205.037-.418.055-.638.055-.504 0-.94-.138-1.308-.415-.368-.277-.552-.708-.552-1.293v-5.503h-1.119v-1.082h1.119v-2.728h1.387v2.728h1.843v1.082h-1.843v5.08c.021.303.121.522.299.658.179.136.389.204.63.204.273 0 .523-.044.748-.133.226-.089.381-.159.465-.212zm8.346.408h-1.387v-4.578c0-.847-.147-1.476-.441-1.889-.294-.413-.725-.619-1.292-.619-.273 0-.546.055-.819.165-.273.11-.528.259-.764.447s-.447.413-.63.674c-.184.261-.323.549-.417.862v4.938h-1.387v-11.445h1.387v5.017c.325-.596.766-1.061 1.323-1.395.557-.334 1.166-.502 1.828-.502.483 0 .893.089 1.229.266.336.178.604.418.803.721.2.303.344.666.433 1.09.089.423.134.875.134 1.356zm6.427 2.242c.283.031.536.047.756.047.094 0 .183-.021.268-.063.084-.042.179-.141.284-.298.105-.157.226-.387.362-.69.137-.303.305-.716.504-1.238l-3.482-8.184h1.434l2.805 6.945 2.552-6.945h1.323l-4.033 10.331c-.189.491-.462.844-.819 1.058-.357.214-.777.322-1.261.322l-.346-.016-.346-.063zm11.817-2.085c-.62 0-1.185-.115-1.694-.345-.509-.23-.945-.538-1.308-.925-.362-.387-.643-.836-.843-1.348-.2-.512-.299-1.05-.299-1.615 0-.575.102-1.118.307-1.63.205-.512.488-.962.851-1.348.362-.387.798-.695 1.308-.925.509-.23 1.069-.345 1.678-.345s1.171.115 1.686.345c.515.23.953.538 1.316.925.362.387.646.836.851 1.348.205.512.307 1.056.307 1.63 0 .565-.1 1.103-.299 1.615-.2.512-.483.962-.851 1.348-.368.387-.806.695-1.316.925-.509.23-1.074.345-1.694.345zm-2.726-4.217c0 .429.071.826.213 1.192.142.366.336.684.583.956.247.272.536.486.866.643.331.157.685.235 1.064.235.378 0 .732-.078 1.063-.235.331-.157.623-.374.875-.65.252-.277.449-.601.591-.972.142-.371.213-.771.213-1.199 0-.418-.071-.813-.213-1.184-.142-.371-.339-.695-.591-.972-.252-.277-.544-.494-.875-.65-.331-.157-.685-.235-1.063-.235-.378 0-.733.081-1.064.243-.331.162-.62.381-.866.658-.247.277-.441.601-.583.972-.142.371-.213.771-.213 1.199zm11.056 4.217c-.861 0-1.513-.287-1.954-.862-.441-.575-.662-1.432-.662-2.571v-4.907h1.387v4.64c0 1.672.583 2.508 1.749 2.508.567 0 1.1-.18 1.599-.541.499-.361.869-.854 1.111-1.481v-5.127h1.387v6.491c0 .324.147.491.441.502v1.191l-.307.047-.245.016c-.315 0-.562-.076-.741-.227-.179-.152-.278-.353-.299-.604l-.048-.988c-.368.617-.851 1.089-1.45 1.419-.599.329-1.255.494-1.969.494zm11.321-7.134c-.693.021-1.305.199-1.836.533-.53.334-.906.8-1.126 1.395v5.048h-1.387v-8.184h1.292v1.897c.284-.564.657-1.032 1.119-1.403.462-.371.956-.557 1.481-.557h.268l.189.016zM228.214 112.479c-.683 0-1.284-.167-1.804-.502-.52-.334-.932-.758-1.237-1.27v4.954h-1.387v-11.523h1.229v1.536c.326-.501.749-.906 1.268-1.215.52-.308 1.095-.463 1.725-.463.567 0 1.087.115 1.56.345.473.23.882.541 1.229.933.347.392.617.844.812 1.356.194.512.292 1.045.292 1.599 0 .585-.089 1.137-.268 1.654-.179.517-.431.967-.756 1.348-.326.381-.714.685-1.166.909-.452.225-.951.337-1.497.337zm-.426-1.192c.41 0 .78-.086 1.111-.259.331-.172.614-.402.851-.69.236-.287.418-.614.544-.98.126-.366.189-.742.189-1.129 0-.408-.073-.797-.22-1.168-.147-.371-.347-.695-.599-.972s-.549-.496-.89-.658c-.341-.162-.712-.243-1.111-.243-.252 0-.512.05-.78.149-.268.099-.52.23-.756.392s-.441.355-.615.58c-.173.225-.286.462-.339.713v2.336c.115.272.262.525.441.76s.383.439.615.611c.231.173.478.308.741.408.263.099.536.149.819.149zm9.425 1.192c-.62 0-1.187-.112-1.702-.337-.515-.225-.956-.53-1.324-.917-.368-.387-.654-.839-.859-1.356-.205-.517-.307-1.063-.307-1.638s.102-1.119.307-1.631c.205-.512.494-.962.866-1.348.373-.387.817-.692 1.331-.917.515-.225 1.082-.337 1.702-.337.62 0 1.184.115 1.694.345.51.23.943.536 1.3.917.357.381.633.826.827 1.333.194.507.291 1.032.291 1.575l-.008.314-.023.22h-6.823c.031.408.126.779.283 1.113.158.334.362.622.615.862.252.24.538.428.859.564.32.136.659.204 1.016.204.252 0 .499-.034.741-.102.242-.068.467-.159.678-.274.21-.115.397-.256.559-.423.163-.167.286-.355.37-.565l1.197.329c-.137.303-.323.58-.559.831-.236.251-.51.468-.819.65-.31.183-.654.327-1.032.431-.378.105-.772.157-1.182.157zm2.82-4.797c-.031-.387-.129-.745-.291-1.074-.163-.329-.368-.609-.615-.839-.247-.23-.533-.41-.859-.541-.326-.131-.672-.196-1.04-.196s-.714.065-1.04.196c-.326.131-.612.314-.859.549-.247.235-.446.515-.599.839-.152.324-.244.679-.276 1.066zm7.182-2.336c-.693.021-1.305.199-1.836.533-.53.334-.906.8-1.126 1.395v5.048h-1.387v-8.184h1.292v1.897c.284-.564.657-1.032 1.119-1.403.462-.371.956-.557 1.481-.557h.268l.189.016zm4.259 7.134c-.662 0-1.313-.102-1.954-.306-.641-.204-1.192-.499-1.655-.886l.599-.925c.483.366.967.64 1.45.823.483.183.993.274 1.529.274.598 0 1.074-.118 1.426-.353.352-.235.528-.567.528-.995 0-.199-.047-.369-.142-.51-.095-.141-.236-.264-.426-.368-.189-.104-.431-.198-.725-.282-.294-.084-.635-.172-1.024-.266-.494-.125-.919-.246-1.276-.361-.357-.115-.651-.251-.882-.408-.231-.157-.399-.345-.504-.565-.105-.22-.158-.491-.158-.815 0-.408.081-.771.244-1.09.163-.319.386-.585.67-.8.284-.214.617-.376 1.001-.486.383-.11.796-.165 1.237-.165.62 0 1.197.099 1.733.298.536.199.988.46 1.355.784l-.63.831c-.347-.303-.736-.53-1.166-.682-.431-.152-.872-.227-1.324-.227-.504 0-.932.107-1.284.322-.352.214-.528.557-.528 1.027 0 .188.034.345.102.471.068.126.181.235.339.329.158.094.36.178.607.251.247.073.544.152.891.235.546.126 1.022.254 1.426.384.404.131.74.285 1.008.462.268.178.467.387.599.627.131.24.197.533.197.878 0 .763-.294 1.369-.882 1.819-.588.449-1.381.674-2.379.674zm8.464 0c-.62 0-1.185-.115-1.694-.345-.509-.23-.945-.538-1.308-.925-.362-.387-.643-.836-.843-1.348-.2-.512-.299-1.05-.299-1.615 0-.575.102-1.118.307-1.63.205-.512.488-.962.851-1.348.362-.387.798-.695 1.308-.925.509-.23 1.069-.345 1.678-.345s1.171.115 1.686.345c.515.23.953.538 1.316.925.362.387.646.836.851 1.348.205.512.307 1.056.307 1.63 0 .565-.1 1.103-.299 1.615-.2.512-.483.962-.851 1.348-.368.387-.806.695-1.316.925-.509.23-1.074.345-1.694.345zm-2.726-4.217c0 .429.071.826.213 1.192.142.366.336.684.583.956.247.272.536.486.866.643.331.157.685.235 1.064.235.378 0 .732-.078 1.063-.235.331-.157.623-.374.875-.65.252-.277.449-.601.591-.972.142-.371.213-.771.213-1.199 0-.418-.071-.813-.213-1.184-.142-.371-.339-.695-.591-.972-.252-.277-.544-.494-.875-.65-.331-.157-.685-.235-1.063-.235-.378 0-.733.081-1.064.243-.331.162-.62.381-.866.658-.247.277-.441.601-.583.972-.142.371-.213.771-.213 1.199zm15.656 4.061h-1.387v-4.578c0-.878-.134-1.516-.402-1.913s-.675-.596-1.221-.596c-.284 0-.567.055-.851.165-.284.11-.551.259-.803.447s-.473.413-.662.674c-.189.261-.331.549-.425.862v4.938h-1.387v-8.184h1.26v1.756c.326-.575.796-1.035 1.41-1.38.615-.345 1.284-.517 2.009-.517.473 0 .867.086 1.182.259.315.173.567.413.756.721.189.308.323.671.402 1.089.079.418.118.873.118 1.364zm4.316.157c-.41 0-.788-.065-1.134-.196-.347-.131-.646-.309-.898-.533-.252-.225-.449-.491-.591-.799-.142-.308-.213-.635-.213-.98 0-.387.084-.74.252-1.058.168-.319.407-.59.717-.815.31-.225.677-.397 1.103-.517.425-.12.89-.18 1.394-.18.399 0 .803.037 1.213.11.41.073.772.172 1.087.298v-.658c0-.669-.189-1.195-.567-1.576-.378-.381-.914-.572-1.607-.572-.83 0-1.702.319-2.615.956l-.457-.894c.536-.355 1.067-.622 1.592-.799.525-.178 1.071-.266 1.639-.266 1.05 0 1.88.287 2.49.862.609.575.914 1.385.914 2.43v3.34c0 .324.147.491.441.502v1.191l-.299.047-.268.016c-.231 0-.457-.063-.678-.188-.221-.125-.341-.34-.362-.643l-.032-.58c-.189.251-.404.47-.646.658-.242.188-.499.345-.772.47s-.554.219-.843.282c-.289.063-.575.094-.859.094zm.347-1.035c.441 0 .872-.094 1.292-.282.42-.188.751-.418.993-.69.199-.23.299-.444.299-.643v-1.207c-.326-.125-.67-.222-1.032-.29-.362-.068-.712-.102-1.048-.102-.714 0-1.287.144-1.717.431-.431.287-.646.682-.646 1.184 0 .209.042.41.126.603.084.193.205.363.362.51.158.146.352.264.583.353.231.089.494.133.788.133zm6.234-10.567h1.386v9.328c0 .303.081.541.244.714.163.172.391.259.685.259.116 0 .252-.018.41-.055.158-.037.305-.081.441-.133l.221 1.113c-.231.094-.504.172-.819.235-.315.063-.594.094-.835.094-.536 0-.958-.152-1.268-.455-.31-.303-.465-.726-.465-1.27zM228.056 131.273l-.331.149-.465.172c-.173.057-.362.104-.567.141-.205.037-.418.055-.638.055-.504 0-.94-.138-1.308-.415-.368-.277-.552-.708-.552-1.293v-5.503h-1.119v-1.082h1.119v-2.728h1.387v2.728h1.843v1.082h-1.843v5.08c.021.303.121.522.299.658.179.136.389.204.63.204.273 0 .523-.044.748-.133.226-.089.381-.159.465-.212zm4.879.565c-.62 0-1.187-.112-1.702-.337-.515-.225-.956-.53-1.324-.917-.368-.387-.654-.839-.859-1.356-.205-.517-.307-1.063-.307-1.638s.102-1.119.307-1.631c.205-.512.494-.962.866-1.348.373-.387.817-.692 1.331-.917.515-.225 1.082-.337 1.702-.337.62 0 1.184.115 1.694.345.51.23.943.536 1.3.917.357.381.633.826.827 1.333.194.507.291 1.032.291 1.575l-.008.314-.023.22h-6.823c.031.408.126.779.283 1.113.158.334.362.622.615.862.252.24.538.428.859.564.32.136.659.204 1.016.204.252 0 .499-.034.741-.102.242-.068.467-.159.678-.274.21-.115.397-.256.559-.423.163-.167.286-.355.37-.565l1.197.329c-.137.303-.323.58-.559.831-.236.251-.51.468-.819.65-.31.183-.654.327-1.032.431-.378.105-.772.157-1.182.157zm2.82-4.797c-.031-.387-.129-.745-.291-1.074-.163-.329-.368-.609-.615-.839-.247-.23-.533-.41-.859-.541-.326-.131-.672-.196-1.04-.196s-.714.065-1.04.196c-.326.131-.612.314-.859.549-.247.235-.446.515-.599.839-.152.324-.244.679-.276 1.066zm2.865-6.804h1.386v9.328c0 .303.081.541.244.714.163.172.391.259.685.259.116 0 .252-.018.41-.055.158-.037.305-.081.441-.133l.221 1.113c-.231.094-.504.172-.819.235-.315.063-.594.094-.835.094-.536 0-.958-.152-1.268-.455-.31-.303-.465-.726-.465-1.27zm8.04 11.602c-.62 0-1.187-.112-1.702-.337-.515-.225-.956-.53-1.324-.917-.368-.387-.654-.839-.859-1.356-.205-.517-.307-1.063-.307-1.638s.102-1.119.307-1.631c.205-.512.494-.962.866-1.348.373-.387.817-.692 1.331-.917.515-.225 1.082-.337 1.702-.337.62 0 1.184.115 1.694.345.51.23.943.536 1.3.917.357.381.633.826.827 1.333.194.507.291 1.032.291 1.575l-.008.314-.023.22h-6.823c.031.408.126.779.283 1.113.158.334.362.622.615.862.252.24.538.428.859.564.32.136.659.204 1.016.204.252 0 .499-.034.741-.102.242-.068.467-.159.678-.274.21-.115.397-.256.559-.423.163-.167.286-.355.37-.565l1.197.329c-.137.303-.323.58-.559.831-.236.251-.51.468-.819.65-.31.183-.654.327-1.032.431-.378.105-.772.157-1.182.157zm2.82-4.797c-.031-.387-.129-.745-.291-1.074-.163-.329-.368-.609-.615-.839-.247-.23-.533-.41-.859-.541-.326-.131-.672-.196-1.04-.196s-.714.065-1.04.196c-.326.131-.612.314-.859.549-.247.235-.446.515-.599.839-.152.324-.244.679-.276 1.066z" font-size="16" class="s0"/><path d="M257.386 131.838c-.683 0-1.284-.167-1.804-.502-.52-.334-.932-.758-1.237-1.27v4.954h-1.387v-11.523h1.229v1.536c.326-.501.749-.906 1.268-1.215.52-.308 1.095-.463 1.725-.463.567 0 1.087.115 1.56.345.473.23.882.541 1.229.933.347.392.617.844.812 1.356.194.512.292 1.045.292 1.599 0 .585-.089 1.137-.268 1.654-.179.517-.431.967-.756 1.348-.326.381-.714.685-1.166.909-.452.225-.951.337-1.497.337zm-.426-1.192c.41 0 .78-.086 1.111-.259.331-.172.614-.402.851-.69.236-.287.418-.614.544-.98.126-.366.189-.742.189-1.129 0-.408-.073-.797-.22-1.168-.147-.371-.347-.695-.599-.972s-.549-.496-.89-.658c-.341-.162-.712-.243-1.111-.243-.252 0-.512.05-.78.149-.268.099-.52.23-.756.392s-.441.355-.615.58c-.173.225-.286.462-.339.713v2.336c.115.272.262.525.441.76s.383.439.615.611c.231.173.478.308.741.408.263.099.536.149.819.149zm10.102-5.942c-.693.021-1.305.199-1.836.533-.53.334-.906.8-1.126 1.395v5.048h-1.387v-8.184h1.292v1.897c.284-.564.657-1.032 1.119-1.403.462-.371.956-.557 1.481-.557h.268l.189.016zm4.969 7.134c-.62 0-1.185-.115-1.694-.345-.509-.23-.945-.538-1.308-.925-.362-.387-.643-.836-.843-1.348-.2-.512-.299-1.05-.299-1.615 0-.575.102-1.118.307-1.63.205-.512.488-.962.851-1.348.362-.387.798-.695 1.308-.925.509-.23 1.069-.345 1.678-.345s1.171.115 1.686.345c.515.23.953.538 1.316.925.362.387.646.836.851 1.348.205.512.307 1.056.307 1.63 0 .565-.1 1.103-.299 1.615-.2.512-.483.962-.851 1.348-.368.387-.806.695-1.316.925-.509.23-1.074.345-1.694.345zm-2.726-4.217c0 .429.071.826.213 1.192.142.366.336.684.583.956.247.272.536.486.866.643.331.157.685.235 1.064.235.378 0 .732-.078 1.063-.235.331-.157.623-.374.875-.65.252-.277.449-.601.591-.972.142-.371.213-.771.213-1.199 0-.418-.071-.813-.213-1.184-.142-.371-.339-.695-.591-.972-.252-.277-.544-.494-.875-.65-.331-.157-.685-.235-1.063-.235-.378 0-.733.081-1.064.243-.331.162-.62.381-.866.658-.247.277-.441.601-.583.972-.142.371-.213.771-.213 1.199zm20.919 4.061h-1.386v-4.578c0-.857-.139-1.489-.418-1.897-.278-.408-.691-.611-1.237-.611-.567 0-1.074.201-1.52.604-.447.402-.764.922-.953 1.56v4.923h-1.387v-4.578c0-.878-.137-1.516-.41-1.913-.273-.397-.683-.596-1.229-.596-.557 0-1.061.196-1.513.588-.452.392-.772.912-.961 1.56v4.938h-1.387v-8.184h1.26v1.756c.336-.606.772-1.074 1.308-1.403.536-.329 1.14-.494 1.812-.494.693 0 1.242.186 1.647.557.404.371.654.849.748 1.435.735-1.328 1.781-1.991 3.136-1.991.473 0 .869.086 1.19.259.32.173.575.413.764.721.189.308.326.671.41 1.089.084.418.126.873.126 1.364zm6.522.157c-.683 0-1.284-.167-1.804-.502-.52-.334-.932-.758-1.237-1.27v4.954h-1.387v-11.523h1.229v1.536c.326-.501.749-.906 1.268-1.215.52-.308 1.095-.463 1.725-.463.567 0 1.087.115 1.56.345.473.23.882.541 1.229.933.347.392.617.844.812 1.356.194.512.292 1.045.292 1.599 0 .585-.089 1.137-.268 1.654-.179.517-.431.967-.756 1.348-.326.381-.714.685-1.166.909-.452.225-.951.337-1.497.337zm-.426-1.192c.41 0 .78-.086 1.111-.259.331-.172.614-.402.851-.69.236-.287.418-.614.544-.98.126-.366.189-.742.189-1.129 0-.408-.073-.797-.22-1.168-.147-.371-.347-.695-.599-.972s-.549-.496-.89-.658c-.341-.162-.712-.243-1.111-.243-.252 0-.512.05-.78.149-.268.099-.52.23-.756.392s-.441.355-.615.58c-.173.225-.286.462-.339.713v2.336c.115.272.262.525.441.76s.383.439.615.611c.231.173.478.308.741.408.263.099.536.149.819.149zm10.023.627l-.331.149-.465.172c-.173.057-.362.104-.567.141-.205.037-.418.055-.638.055-.504 0-.94-.138-1.308-.415-.368-.277-.552-.708-.552-1.293v-5.503h-1.119v-1.082h1.119v-2.728h1.387v2.728h1.843v1.082h-1.843v5.08c.021.303.121.522.299.658.179.136.389.204.63.204.273 0 .523-.044.748-.133.226-.089.381-.159.465-.212z" class="s3"/><path d="M312.197 131.838c-.62 0-1.187-.112-1.702-.337-.515-.225-.956-.53-1.324-.917-.368-.387-.654-.839-.859-1.356-.205-.517-.307-1.063-.307-1.638s.102-1.119.307-1.631c.205-.512.494-.962.866-1.348.373-.387.817-.692 1.331-.917.515-.225 1.082-.337 1.702-.337.62 0 1.184.115 1.694.345.51.23.943.536 1.3.917.357.381.633.826.827 1.333.194.507.291 1.032.291 1.575l-.008.314-.023.22h-6.823c.031.408.126.779.283 1.113.158.334.362.622.615.862.252.24.538.428.859.564.32.136.659.204 1.016.204.252 0 .499-.034.741-.102.242-.068.467-.159.678-.274.21-.115.397-.256.559-.423.163-.167.286-.355.37-.565l1.197.329c-.137.303-.323.58-.559.831-.236.251-.51.468-.819.65-.31.183-.654.327-1.032.431-.378.105-.772.157-1.182.157zm2.82-4.797c-.031-.387-.129-.745-.291-1.074-.163-.329-.368-.609-.615-.839-.247-.23-.533-.41-.859-.541-.326-.131-.672-.196-1.04-.196s-.714.065-1.04.196c-.326.131-.612.314-.859.549-.247.235-.446.515-.599.839-.152.324-.244.679-.276 1.066zm7.182-2.336c-.693.021-1.305.199-1.836.533-.53.334-.906.8-1.126 1.395v5.048h-1.387v-8.184h1.292v1.897c.284-.564.657-1.032 1.119-1.403.462-.371.956-.557 1.481-.557h.268l.189.016zm1.25 6.977v-1.756h1.166v1.756z" font-size="16" class="s0"/><path d="M232.009 2.593c-21.563 0-41.464 17.499-39.022 38.833l4.616 40.487c15.674 6.898 26.651 22.486 26.651 40.61 0 11.555-4.472 22.054-11.756 29.952 6.926 8.906 17.146 14.639 29.482 14.639h10.279v-2.205c0-2.547 2.057-4.594 4.616-4.594h37.545c2.559 0 4.616 2.047 4.616 4.594v2.205h10.279c21.564 0 36.58-17.499 39.022-38.833l9.909-86.854c2.442-21.334-17.459-38.833-39.022-38.833h-87.215z" style="-inkscape-font-specification:Sans;block-progression:tb;line-height:normal;text-align:start;text-indent:0;text-transform:none" font-family="Sans" stroke-width="3" stroke="#f5f5f5" fill="none"/><path d="M239.967 234.449h-120.868c0-33.15 27.057-60.024 60.434-60.024 33.377 0 60.434 26.874 60.434 60.024z" stroke-width="3" stroke="#5bc0de" fill="none"/><path d="M40.776 1c-22.41 0-43.121 18.241-40.561 40.61l9.909 86.854c2.512 21.949 18.151 40.242 40.561 40.242h8.74v-3.124h-8.74c-20.716 0-35.112-16.766-37.483-37.486l-9.909-86.854c-2.323-20.3 16.767-37.118 37.483-37.118h87.215c20.717 0 39.807 16.818 37.483 37.118l-4.678 40.977c1.07-.492 2.149-.939 3.262-1.348l4.493-39.262c2.56-22.369-18.15-40.61-40.561-40.61h-87.215zm105.249 150.862c-6.639 8.368-16.32 13.72-28.005 13.72h-8.74v3.124h8.74c12.526 0 22.957-5.704 30.159-14.578-.749-.732-1.459-1.484-2.154-2.266z" style="-inkscape-font-specification:Sans;block-progression:tb;line-height:normal;text-align:start;text-indent:0;text-transform:none" fill="#f5f5f5" font-family="Sans"/><path d="M65.58 160.314c-2.559 0-4.616 2.047-4.616 4.594v3.859c0 2.547 2.057 4.594 4.616 4.594h12.187v60.822h13.233v-60.822h12.125c2.559 0 4.616-2.047 4.616-4.594v-3.859c0-2.547-2.057-4.594-4.616-4.594h-37.545zm191.264 0c-2.559 0-4.616 2.047-4.616 4.594v3.859c0 2.547 2.057 4.594 4.616 4.594h12.187v60.822h13.233v-60.822h12.125c2.559 0 4.616-2.047 4.616-4.594v-3.859c0-2.547-2.057-4.594-4.616-4.594h-37.545z" class="s4"/><path transform="matrix(.703 0 0 .698 578.788 -88.138)" d="M-504.286 301.648a63.571 63.571 0 1 1-127.143 0 63.571 63.571 0 1 1 127.143 0z" stroke-width="4" stroke="#5bc0de" fill="none"/><path d="M30.464 34.319v-11.131h4.664c.494 0 .948.102 1.363.306.415.204.772.476 1.071.815.299.34.533.721.701 1.144.168.423.252.854.252 1.293 0 .46-.079.904-.236 1.333-.158.429-.381.81-.67 1.144-.289.334-.636.601-1.04.799-.404.199-.853.298-1.347.298h-3.34v3.998zm1.418-5.252h3.262c.294 0 .56-.06.796-.18s.438-.287.607-.502c.168-.214.299-.462.394-.745.095-.282.142-.58.142-.894 0-.324-.055-.627-.165-.909-.11-.282-.257-.528-.441-.737-.184-.209-.399-.371-.646-.486-.247-.115-.507-.172-.78-.172h-3.167zm8.148-6.193h1.386v9.328c0 .303.081.541.244.714.163.172.391.259.685.259.116 0 .252-.018.41-.055.158-.037.305-.081.441-.133l.221 1.113c-.231.094-.504.172-.819.235-.315.063-.594.094-.835.094-.536 0-.958-.152-1.268-.455-.31-.303-.465-.726-.465-1.27zm6.59 11.602c-.41 0-.788-.065-1.134-.196-.347-.131-.646-.309-.898-.533-.252-.225-.449-.491-.591-.799-.142-.308-.213-.635-.213-.98 0-.387.084-.74.252-1.058.168-.319.407-.59.717-.815.31-.225.677-.397 1.103-.517.425-.12.89-.18 1.394-.18.399 0 .803.037 1.213.11.41.073.772.172 1.087.298v-.658c0-.669-.189-1.195-.567-1.576-.378-.381-.914-.572-1.607-.572-.83 0-1.702.319-2.615.956l-.457-.894c.536-.355 1.067-.622 1.592-.799.525-.178 1.071-.266 1.639-.266 1.05 0 1.88.287 2.49.862.609.575.914 1.385.914 2.43v3.34c0 .324.147.491.441.502v1.191l-.299.047-.268.016c-.231 0-.457-.063-.678-.188-.221-.125-.341-.34-.362-.643l-.032-.58c-.189.251-.404.47-.646.658-.242.188-.499.345-.772.47s-.554.219-.843.282c-.289.063-.575.094-.859.094zm.347-1.035c.441 0 .872-.094 1.292-.282.42-.188.751-.418.993-.69.199-.23.299-.444.299-.643v-1.207c-.326-.125-.67-.222-1.032-.29-.362-.068-.712-.102-1.048-.102-.714 0-1.287.144-1.717.431-.431.287-.646.682-.646 1.184 0 .209.042.41.126.603.084.193.205.363.362.51.158.146.352.264.583.353.231.089.494.133.788.133zm6.565 3.12c.283.031.536.047.756.047.094 0 .183-.021.268-.063.084-.042.179-.141.284-.298.105-.157.226-.387.362-.69.137-.303.305-.716.504-1.238l-3.482-8.184h1.434l2.805 6.945 2.552-6.945h1.323l-4.033 10.331c-.189.491-.462.844-.819 1.058-.357.214-.777.322-1.261.322l-.346-.016-.346-.063zm24.563-2.242h-1.386v-4.578c0-.857-.139-1.489-.418-1.897-.278-.408-.691-.611-1.237-.611-.567 0-1.074.201-1.52.604-.447.402-.764.922-.953 1.56v4.923h-1.387v-4.578c0-.878-.137-1.516-.41-1.913-.273-.397-.683-.596-1.229-.596-.557 0-1.061.196-1.513.588-.452.392-.772.912-.961 1.56v4.938h-1.387v-8.184h1.26v1.756c.336-.606.772-1.074 1.308-1.403.536-.329 1.14-.494 1.812-.494.693 0 1.242.186 1.647.557.404.371.654.849.748 1.435.735-1.328 1.781-1.991 3.136-1.991.473 0 .869.086 1.19.259.32.173.575.413.764.721.189.308.326.671.41 1.089.084.418.126.873.126 1.364zm4.632.157c-.861 0-1.513-.287-1.954-.862-.441-.575-.662-1.432-.662-2.571v-4.907h1.387v4.64c0 1.672.583 2.508 1.749 2.508.567 0 1.1-.18 1.599-.541.499-.361.869-.854 1.111-1.481v-5.127h1.387v6.491c0 .324.147.491.441.502v1.191l-.307.047-.245.016c-.315 0-.562-.076-.741-.227-.179-.152-.278-.353-.299-.604l-.048-.988c-.368.617-.851 1.089-1.45 1.419-.599.329-1.255.494-1.969.494zm9.887 0c-.662 0-1.313-.102-1.954-.306-.641-.204-1.192-.499-1.655-.886l.599-.925c.483.366.967.64 1.45.823.483.183.993.274 1.529.274.598 0 1.074-.118 1.426-.353.352-.235.528-.567.528-.995 0-.199-.047-.369-.142-.51-.095-.141-.236-.264-.426-.368-.189-.104-.431-.198-.725-.282-.294-.084-.635-.172-1.024-.266-.494-.125-.919-.246-1.276-.361-.357-.115-.651-.251-.882-.408-.231-.157-.399-.345-.504-.565-.105-.22-.158-.491-.158-.815 0-.408.081-.771.244-1.09.163-.319.386-.585.67-.8.284-.214.617-.376 1.001-.486.383-.11.796-.165 1.237-.165.62 0 1.197.099 1.733.298.536.199.988.46 1.355.784l-.63.831c-.347-.303-.736-.53-1.166-.682-.431-.152-.872-.227-1.324-.227-.504 0-.932.107-1.284.322-.352.214-.528.557-.528 1.027 0 .188.034.345.102.471.068.126.181.235.339.329.158.094.36.178.607.251.247.073.544.152.891.235.546.126 1.022.254 1.426.384.404.131.74.285 1.008.462.268.178.467.387.599.627.131.24.197.533.197.878 0 .763-.294 1.369-.882 1.819-.588.449-1.381.674-2.379.674zm4.84-.157v-8.184h1.387v8.184zm0-9.72v-1.725h1.387v1.725zm3.05 5.613c0-.575.1-1.118.299-1.631.2-.512.483-.959.851-1.341.368-.381.806-.685 1.316-.909.509-.225 1.079-.337 1.709-.337.819 0 1.526.18 2.119.541.594.361 1.043.844 1.347 1.45l-1.355.423c-.21-.387-.504-.687-.882-.901-.378-.214-.798-.321-1.26-.321-.378 0-.735.076-1.072.227-.336.152-.625.363-.866.635-.242.272-.433.591-.575.956-.142.366-.213.768-.213 1.207 0 .428.073.831.22 1.207.147.376.344.703.591.98s.536.494.867.65c.331.157.685.235 1.063.235.242 0 .481-.034.717-.102.236-.068.452-.159.646-.274.194-.115.365-.248.512-.4.147-.152.252-.316.315-.494l1.355.408c-.126.303-.302.58-.528.831-.226.251-.491.465-.796.643-.305.178-.643.319-1.016.423-.373.105-.764.157-1.174.157-.62 0-1.187-.115-1.702-.345-.515-.23-.956-.538-1.324-.925-.368-.387-.654-.839-.859-1.356-.205-.517-.307-1.063-.307-1.638zm9.165 4.107v-1.756h1.166v1.756zM38.39 52.361c-.988 1.056-2.122 1.584-3.403 1.584-.746 0-1.437-.162-2.072-.486-.636-.324-1.184-.75-1.646-1.278-.462-.528-.827-1.131-1.095-1.811-.268-.679-.402-1.38-.402-2.101 0-.752.131-1.466.394-2.14.263-.674.625-1.27 1.087-1.787.462-.517 1.014-.928 1.654-1.231.641-.303 1.334-.455 2.08-.455 1.082 0 1.972.225 2.671.674.699.449 1.232 1.035 1.599 1.756l-1.087.753c-.336-.648-.783-1.129-1.339-1.443-.557-.314-1.182-.47-1.875-.47-.567 0-1.082.123-1.544.368-.462.246-.856.57-1.182.972-.326.402-.578.868-.756 1.395-.179.528-.268 1.074-.268 1.638 0 .596.1 1.158.3 1.686.2.528.473.993.819 1.395.347.402.756.719 1.229.949.473.23.987.345 1.544.345 1.218 0 2.316-.585 3.293-1.756v-1.537h-2.411v-1.066h3.608v5.55h-1.197zm3.147 1.505v-8.184h1.387v8.184zm0-9.72v-1.725h1.387v1.725zm5.949 9.72l-3.246-8.184h1.434l2.599 6.977 2.616-6.977h1.323l-3.246 8.184zm9.693.157c-.62 0-1.187-.112-1.702-.337-.515-.225-.956-.53-1.324-.917-.368-.387-.654-.839-.859-1.356-.205-.517-.307-1.063-.307-1.638s.102-1.119.307-1.631c.205-.512.494-.962.866-1.348.373-.387.817-.692 1.331-.917.515-.225 1.082-.337 1.702-.337.62 0 1.184.115 1.694.345.51.23.943.536 1.3.917.357.381.633.826.827 1.333.194.507.291 1.032.291 1.575l-.008.314-.023.22h-6.823c.031.408.126.779.283 1.113.158.334.362.622.615.862.252.24.538.428.859.564.32.136.659.204 1.016.204.252 0 .499-.034.741-.102.242-.068.467-.159.678-.274.21-.115.397-.256.559-.423.163-.167.286-.355.37-.565l1.197.329c-.137.303-.323.58-.559.831-.236.251-.51.468-.819.65-.31.183-.654.327-1.032.431-.378.105-.772.157-1.182.157zm2.82-4.797c-.031-.387-.129-.745-.291-1.074-.163-.329-.368-.609-.615-.839-.247-.23-.533-.41-.859-.541-.326-.131-.672-.196-1.04-.196s-.714.065-1.04.196c-.326.131-.612.314-.859.549-.247.235-.446.515-.599.839-.152.324-.244.679-.276 1.066zm9.718 4.797c-.662 0-1.313-.102-1.954-.306-.641-.204-1.192-.499-1.655-.886l.599-.925c.483.366.967.64 1.45.823.483.183.993.274 1.529.274.598 0 1.074-.118 1.426-.353.352-.235.528-.567.528-.995 0-.199-.047-.369-.142-.51-.095-.141-.236-.264-.426-.368-.189-.104-.431-.198-.725-.282-.294-.084-.635-.172-1.024-.266-.494-.125-.919-.246-1.276-.361-.357-.115-.651-.251-.882-.408-.231-.157-.399-.345-.504-.565-.105-.22-.158-.491-.158-.815 0-.408.081-.771.244-1.09.163-.319.386-.585.67-.8.284-.214.617-.376 1.001-.486.383-.11.796-.165 1.237-.165.62 0 1.197.099 1.733.298.536.199.988.46 1.355.784l-.63.831c-.347-.303-.736-.53-1.166-.682-.431-.152-.872-.227-1.324-.227-.504 0-.932.107-1.284.322-.352.214-.528.557-.528 1.027 0 .188.034.345.102.471.068.126.181.235.339.329.158.094.36.178.607.251.247.073.544.152.891.235.546.126 1.022.254 1.426.384.404.131.74.285 1.008.462.268.178.467.387.599.627.131.24.197.533.197.878 0 .763-.294 1.369-.882 1.819-.588.449-1.381.674-2.379.674zm9.268 0c-.683 0-1.284-.167-1.804-.502-.52-.334-.932-.758-1.237-1.27v4.954h-1.387v-11.523h1.229v1.536c.326-.501.749-.906 1.268-1.215.52-.308 1.095-.463 1.725-.463.567 0 1.087.115 1.56.345.473.23.882.541 1.229.933.347.392.617.844.812 1.356.194.512.292 1.045.292 1.599 0 .585-.089 1.137-.268 1.654-.179.517-.431.967-.756 1.348-.326.381-.714.685-1.166.909-.452.225-.951.337-1.497.337zm-.426-1.192c.41 0 .78-.086 1.111-.259.331-.172.614-.402.851-.69.236-.287.418-.614.544-.98.126-.366.189-.742.189-1.129 0-.408-.073-.797-.22-1.168-.147-.371-.347-.695-.599-.972s-.549-.496-.89-.658c-.341-.162-.712-.243-1.111-.243-.252 0-.512.05-.78.149-.268.099-.52.23-.756.392s-.441.355-.615.58c-.173.225-.286.462-.339.713v2.336c.115.272.262.525.441.76s.383.439.615.611c.231.173.478.308.741.408.263.099.536.149.819.149zm9.425 1.192c-.62 0-1.187-.112-1.702-.337-.515-.225-.956-.53-1.324-.917-.368-.387-.654-.839-.859-1.356-.205-.517-.307-1.063-.307-1.638s.102-1.119.307-1.631c.205-.512.494-.962.866-1.348.373-.387.817-.692 1.331-.917.515-.225 1.082-.337 1.702-.337.62 0 1.184.115 1.694.345.51.23.943.536 1.3.917.357.381.633.826.827 1.333.194.507.291 1.032.291 1.575l-.008.314-.023.22h-6.823c.031.408.126.779.283 1.113.158.334.362.622.615.862.252.24.538.428.859.564.32.136.659.204 1.016.204.252 0 .499-.034.741-.102.242-.068.467-.159.678-.274.21-.115.397-.256.559-.423.163-.167.286-.355.37-.565l1.197.329c-.137.303-.323.58-.559.831-.236.251-.51.468-.819.65-.31.183-.654.327-1.032.431-.378.105-.772.157-1.182.157zm2.82-4.797c-.031-.387-.129-.745-.291-1.074-.163-.329-.368-.609-.615-.839-.247-.23-.533-.41-.859-.541-.326-.131-.672-.196-1.04-.196s-.714.065-1.04.196c-.326.131-.612.314-.859.549-.247.235-.446.515-.599.839-.152.324-.244.679-.276 1.066zm6.504 4.797c-.62 0-1.187-.112-1.702-.337-.515-.225-.956-.53-1.324-.917-.368-.387-.654-.839-.859-1.356-.205-.517-.307-1.063-.307-1.638s.102-1.119.307-1.631c.205-.512.494-.962.866-1.348.373-.387.817-.692 1.331-.917.515-.225 1.082-.337 1.702-.337.62 0 1.184.115 1.694.345.51.23.943.536 1.3.917.357.381.633.826.827 1.333.194.507.291 1.032.291 1.575l-.008.314-.023.22h-6.823c.031.408.126.779.283 1.113.158.334.362.622.615.862.252.24.538.428.859.564.32.136.659.204 1.016.204.252 0 .499-.034.741-.102.242-.068.467-.159.678-.274.21-.115.397-.256.559-.423.163-.167.286-.355.37-.565l1.197.329c-.137.303-.323.58-.559.831-.236.251-.51.468-.819.65-.31.183-.654.327-1.032.431-.378.105-.772.157-1.182.157zm2.82-4.797c-.031-.387-.129-.745-.291-1.074-.163-.329-.368-.609-.615-.839-.247-.23-.533-.41-.859-.541-.326-.131-.672-.196-1.04-.196s-.714.065-1.04.196c-.326.131-.612.314-.859.549-.247.235-.446.515-.599.839-.152.324-.244.679-.276 1.066zm2.313.533c0-.575.1-1.118.299-1.631.2-.512.483-.959.851-1.341.368-.381.806-.685 1.316-.909.509-.225 1.079-.337 1.709-.337.819 0 1.526.18 2.119.541.594.361 1.043.844 1.347 1.45l-1.355.423c-.21-.387-.504-.687-.882-.901-.378-.214-.798-.321-1.26-.321-.378 0-.735.076-1.072.227-.336.152-.625.363-.866.635-.242.272-.433.591-.575.956-.142.366-.213.768-.213 1.207 0 .428.073.831.22 1.207.147.376.344.703.591.98s.536.494.867.65c.331.157.685.235 1.063.235.242 0 .481-.034.717-.102.236-.068.452-.159.646-.274.194-.115.365-.248.512-.4.147-.152.252-.316.315-.494l1.355.408c-.126.303-.302.58-.528.831-.226.251-.491.465-.796.643-.305.178-.643.319-1.016.423-.373.105-.764.157-1.174.157-.62 0-1.187-.115-1.702-.345-.515-.23-.956-.538-1.324-.925-.368-.387-.654-.839-.859-1.356-.205-.517-.307-1.063-.307-1.638zm16.397 4.107h-1.387v-4.578c0-.847-.147-1.476-.441-1.889-.294-.413-.725-.619-1.292-.619-.273 0-.546.055-.819.165-.273.11-.528.259-.764.447s-.447.413-.63.674c-.184.261-.323.549-.417.862v4.938h-1.387v-11.445h1.387v5.017c.325-.596.766-1.061 1.323-1.395.557-.334 1.166-.502 1.828-.502.483 0 .893.089 1.229.266.336.178.604.418.803.721.2.303.344.666.433 1.09.089.423.134.875.134 1.356zm5.766.157c-.62 0-1.187-.112-1.702-.337-.515-.225-.956-.53-1.324-.917-.368-.387-.654-.839-.859-1.356-.205-.517-.307-1.063-.307-1.638s.102-1.119.307-1.631c.205-.512.494-.962.866-1.348.373-.387.817-.692 1.331-.917.515-.225 1.082-.337 1.702-.337.62 0 1.184.115 1.694.345.51.23.943.536 1.3.917.357.381.633.826.827 1.333.194.507.291 1.032.291 1.575l-.008.314-.023.22h-6.823c.031.408.126.779.283 1.113.158.334.362.622.615.862.252.24.538.428.859.564.32.136.659.204 1.016.204.252 0 .499-.034.741-.102.242-.068.467-.159.678-.274.21-.115.397-.256.559-.423.163-.167.286-.355.37-.565l1.197.329c-.137.303-.323.58-.559.831-.236.251-.51.468-.819.65-.31.183-.654.327-1.032.431-.378.105-.772.157-1.182.157zm2.82-4.797c-.031-.387-.129-.745-.291-1.074-.163-.329-.368-.609-.615-.839-.247-.23-.533-.41-.859-.541-.326-.131-.672-.196-1.04-.196s-.714.065-1.04.196c-.326.131-.612.314-.859.549-.247.235-.446.515-.599.839-.152.324-.244.679-.276 1.066zm5.748 4.797c-.662 0-1.313-.102-1.954-.306-.641-.204-1.192-.499-1.655-.886l.599-.925c.483.366.967.64 1.45.823.483.183.993.274 1.529.274.598 0 1.074-.118 1.426-.353.352-.235.528-.567.528-.995 0-.199-.047-.369-.142-.51-.095-.141-.236-.264-.426-.368-.189-.104-.431-.198-.725-.282-.294-.084-.635-.172-1.024-.266-.494-.125-.919-.246-1.276-.361-.357-.115-.651-.251-.882-.408-.231-.157-.399-.345-.504-.565-.105-.22-.158-.491-.158-.815 0-.408.081-.771.244-1.09.163-.319.386-.585.67-.8.284-.214.617-.376 1.001-.486.383-.11.796-.165 1.237-.165.62 0 1.197.099 1.733.298.536.199.988.46 1.355.784l-.63.831c-.347-.303-.736-.53-1.166-.682-.431-.152-.872-.227-1.324-.227-.504 0-.932.107-1.284.322-.352.214-.528.557-.528 1.027 0 .188.034.345.102.471.068.126.181.235.339.329.158.094.36.178.607.251.247.073.544.152.891.235.546.126 1.022.254 1.426.384.404.131.74.285 1.008.462.268.178.467.387.599.627.131.24.197.533.197.878 0 .763-.294 1.369-.882 1.819-.588.449-1.381.674-2.379.674zm4.745-.157v-1.756h1.166v1.756zM37.066 64.431c-.126-.146-.294-.288-.504-.423-.21-.136-.446-.259-.709-.368-.263-.11-.549-.199-.859-.266-.31-.068-.633-.102-.969-.102-.872 0-1.51.162-1.914.486-.404.324-.607.768-.607 1.332 0 .303.058.554.173.753.116.199.297.368.544.51.247.141.554.264.922.368.368.104.804.214 1.308.329.578.126 1.1.269 1.568.431.467.162.867.363 1.198.604.331.241.583.533.756.878.173.345.26.768.26 1.27 0 .533-.105.995-.315 1.387-.21.392-.496.716-.859.972-.362.256-.79.444-1.284.564-.494.12-1.029.18-1.607.18-.861 0-1.678-.133-2.45-.4-.772-.266-1.473-.656-2.103-1.168l.678-1.192c.168.178.386.355.654.533.268.178.572.337.914.478.341.141.709.256 1.103.345.394.089.806.133 1.237.133.799 0 1.418-.141 1.859-.423.441-.282.662-.705.662-1.27 0-.314-.071-.577-.213-.792-.142-.214-.349-.4-.622-.556-.273-.157-.612-.295-1.016-.416-.405-.12-.864-.243-1.379-.368-.567-.136-1.066-.282-1.497-.439-.431-.157-.79-.345-1.079-.565-.289-.22-.507-.486-.654-.8-.147-.314-.22-.69-.22-1.129 0-.533.1-1.003.299-1.411.2-.408.478-.752.835-1.035.357-.282.782-.494 1.276-.635.494-.141 1.029-.212 1.607-.212.757 0 1.439.115 2.049.345.609.23 1.15.538 1.623.925zm2.289 4.688c0-.575.1-1.118.299-1.631.2-.512.483-.959.851-1.341.368-.381.806-.685 1.316-.909.509-.225 1.079-.337 1.709-.337.819 0 1.526.18 2.119.541.594.361 1.043.844 1.347 1.45l-1.355.423c-.21-.387-.504-.687-.882-.901-.378-.214-.798-.321-1.26-.321-.378 0-.735.076-1.072.227-.336.152-.625.363-.866.635-.242.272-.433.591-.575.956-.142.366-.213.768-.213 1.207 0 .428.073.831.22 1.207.147.376.344.703.591.98s.536.494.867.65c.331.157.685.235 1.063.235.242 0 .481-.034.717-.102.236-.068.452-.159.646-.274.194-.115.365-.248.512-.4.147-.152.252-.316.315-.494l1.355.408c-.126.303-.302.58-.528.831-.226.251-.491.465-.796.643-.305.178-.643.319-1.016.423-.373.105-.764.157-1.174.157-.62 0-1.187-.115-1.702-.345-.515-.23-.956-.538-1.324-.925-.368-.387-.654-.839-.859-1.356-.205-.517-.307-1.063-.307-1.638zm13.608-2.869c-.693.021-1.305.199-1.836.533-.53.334-.906.8-1.126 1.395v5.048h-1.387v-8.184h1.292v1.897c.284-.564.657-1.032 1.119-1.403.462-.371.956-.557 1.481-.557h.268l.189.016zm4.969 7.134c-.62 0-1.185-.115-1.694-.345-.509-.23-.945-.538-1.308-.925-.362-.387-.643-.836-.843-1.348-.2-.512-.299-1.05-.299-1.615 0-.575.102-1.118.307-1.63.205-.512.488-.962.851-1.348.362-.387.798-.695 1.308-.925.509-.23 1.069-.345 1.678-.345s1.171.115 1.686.345c.515.23.953.538 1.316.925.362.387.646.836.851 1.348.205.512.307 1.056.307 1.63 0 .565-.1 1.103-.299 1.615-.2.512-.483.962-.851 1.348-.368.387-.806.695-1.316.925-.509.23-1.074.345-1.694.345zm-2.726-4.217c0 .429.071.826.213 1.192.142.366.336.684.583.956.247.272.536.486.866.643.331.157.685.235 1.064.235.378 0 .732-.078 1.063-.235.331-.157.623-.374.875-.65.252-.277.449-.601.591-.972.142-.371.213-.771.213-1.199 0-.418-.071-.813-.213-1.184-.142-.371-.339-.695-.591-.972-.252-.277-.544-.494-.875-.65-.331-.157-.685-.235-1.063-.235-.378 0-.733.081-1.064.243-.331.162-.62.381-.866.658-.247.277-.441.601-.583.972-.142.371-.213.771-.213 1.199zm8.55-7.384h1.386v9.328c0 .303.081.541.244.714.163.172.391.259.685.259.116 0 .252-.018.41-.055.158-.037.305-.081.441-.133l.221 1.113c-.231.094-.504.172-.819.235-.315.063-.594.094-.835.094-.536 0-.958-.152-1.268-.455-.31-.303-.465-.726-.465-1.27zm4.401 0h1.386v9.328c0 .303.081.541.244.714.163.172.391.259.685.259.116 0 .252-.018.41-.055.158-.037.305-.081.441-.133l.221 1.113c-.231.094-.504.172-.819.235-.315.063-.594.094-.835.094-.536 0-.958-.152-1.268-.455-.31-.303-.465-.726-.465-1.27zm8.701 13.687c.283.031.536.047.756.047.094 0 .183-.021.268-.063.084-.042.179-.141.284-.298.105-.157.226-.387.362-.69.137-.303.305-.716.504-1.238l-3.482-8.184h1.434l2.805 6.945 2.552-6.945h1.323l-4.033 10.331c-.189.491-.462.844-.819 1.058-.357.214-.777.322-1.261.322l-.346-.016-.346-.063zm11.817-2.085c-.62 0-1.185-.115-1.694-.345-.509-.23-.945-.538-1.308-.925-.362-.387-.643-.836-.843-1.348-.2-.512-.299-1.05-.299-1.615 0-.575.102-1.118.307-1.63.205-.512.488-.962.851-1.348.362-.387.798-.695 1.308-.925.509-.23 1.069-.345 1.678-.345s1.171.115 1.686.345c.515.23.953.538 1.316.925.362.387.646.836.851 1.348.205.512.307 1.056.307 1.63 0 .565-.1 1.103-.299 1.615-.2.512-.483.962-.851 1.348-.368.387-.806.695-1.316.925-.509.23-1.074.345-1.694.345zm-2.726-4.217c0 .429.071.826.213 1.192.142.366.336.684.583.956.247.272.536.486.866.643.331.157.685.235 1.064.235.378 0 .732-.078 1.063-.235.331-.157.623-.374.875-.65.252-.277.449-.601.591-.972.142-.371.213-.771.213-1.199 0-.418-.071-.813-.213-1.184-.142-.371-.339-.695-.591-.972-.252-.277-.544-.494-.875-.65-.331-.157-.685-.235-1.063-.235-.378 0-.733.081-1.064.243-.331.162-.62.381-.866.658-.247.277-.441.601-.583.972-.142.371-.213.771-.213 1.199zm11.056 4.217c-.861 0-1.513-.287-1.954-.862-.441-.575-.662-1.432-.662-2.571v-4.907h1.387v4.64c0 1.672.583 2.508 1.749 2.508.567 0 1.1-.18 1.599-.541.499-.361.869-.854 1.111-1.481v-5.127h1.387v6.491c0 .324.147.491.441.502v1.191l-.307.047-.245.016c-.315 0-.562-.076-.741-.227-.179-.152-.278-.353-.299-.604l-.048-.988c-.368.617-.851 1.089-1.45 1.419-.599.329-1.255.494-1.969.494zm11.321-7.134c-.693.021-1.305.199-1.836.533-.53.334-.906.8-1.126 1.395v5.048h-1.387v-8.184h1.292v1.897c.284-.564.657-1.032 1.119-1.403.462-.371.956-.557 1.481-.557h.268l.189.016zm9.584 6.569l-.331.149-.465.172c-.173.057-.362.104-.567.141-.205.037-.418.055-.638.055-.504 0-.94-.138-1.308-.415-.368-.277-.552-.708-.552-1.293v-5.503h-1.119v-1.082h1.119v-2.728h1.387v2.728h1.843v1.082h-1.843v5.08c.021.303.121.522.299.658.179.136.389.204.63.204.273 0 .523-.044.748-.133.226-.089.381-.159.465-.212zm4.879.565c-.62 0-1.187-.112-1.702-.337-.515-.225-.956-.53-1.324-.917-.368-.387-.654-.839-.859-1.356-.205-.517-.307-1.063-.307-1.638s.102-1.119.307-1.631c.205-.512.494-.962.866-1.348.373-.387.817-.692 1.331-.917.515-.225 1.082-.337 1.702-.337.62 0 1.184.115 1.694.345.51.23.943.536 1.3.917.357.381.633.826.827 1.333.194.507.291 1.032.291 1.575l-.008.314-.023.22h-6.823c.031.408.126.779.283 1.113.158.334.362.622.615.862.252.24.538.428.859.564.32.136.659.204 1.016.204.252 0 .499-.034.741-.102.242-.068.467-.159.678-.274.21-.115.397-.256.559-.423.163-.167.286-.355.37-.565l1.197.329c-.137.303-.323.58-.559.831-.236.251-.51.468-.819.65-.31.183-.654.327-1.032.431-.378.105-.772.157-1.182.157zm2.82-4.797c-.031-.387-.129-.745-.291-1.074-.163-.329-.368-.609-.615-.839-.247-.23-.533-.41-.859-.541-.326-.131-.672-.196-1.04-.196s-.714.065-1.04.196c-.326.131-.612.314-.859.549-.247.235-.446.515-.599.839-.152.324-.244.679-.276 1.066zm3.369-3.543l2.253 3.01.126.251.142-.251 2.237-3.01h1.465l-3.072 4.107 3.088 4.076h-1.465l-2.253-2.995-.142-.235-.126.235-2.253 2.995h-1.465l3.088-4.076-3.073-4.107zm11.766 7.776l-.331.149-.465.172c-.173.057-.362.104-.567.141-.205.037-.418.055-.638.055-.504 0-.94-.138-1.308-.415-.368-.277-.552-.708-.552-1.293v-5.503h-1.119v-1.082h1.119v-2.728h1.387v2.728h1.843v1.082h-1.843v5.08c.021.303.121.522.299.658.179.136.389.204.63.204.273 0 .523-.044.748-.133.226-.089.381-.159.465-.212zM40.58 84.59h1.34l-3.498 8.184h-1.15l-1.655-3.998-1.638 3.998h-1.151l-3.498-8.184h1.323l2.837 6.82 1.386-3.402-1.418-3.402h1.15l1.008 2.618 1.009-2.618h1.15l-1.403 3.402 1.387 3.402zm2.619 8.184v-8.184h1.387v8.184zm0-9.72v-1.725h1.387v1.725zm7.84 9.312l-.331.149-.465.172c-.173.057-.362.104-.567.141-.205.037-.418.055-.638.055-.504 0-.94-.138-1.308-.415-.368-.277-.552-.708-.552-1.293v-5.503h-1.119v-1.082h1.119v-2.728h1.387v2.728h1.843v1.082h-1.843v5.08c.021.303.121.522.299.658.179.136.389.204.63.204.273 0 .523-.044.748-.133.226-.089.381-.159.465-.212zm8.346.408h-1.387v-4.578c0-.847-.147-1.476-.441-1.889-.294-.413-.725-.619-1.292-.619-.273 0-.546.055-.819.165-.273.11-.528.259-.764.447s-.447.413-.63.674c-.184.261-.323.549-.417.862v4.938h-1.387v-11.445h1.387v5.017c.325-.596.766-1.061 1.323-1.395.557-.334 1.166-.502 1.828-.502.483 0 .893.089 1.229.266.336.178.604.418.803.721.2.303.344.666.433 1.09.089.423.134.875.134 1.356zm6.427 2.242c.283.031.536.047.756.047.094 0 .183-.021.268-.063.084-.042.179-.141.284-.298.105-.157.226-.387.362-.69.137-.303.305-.716.504-1.238l-3.482-8.184h1.434l2.805 6.945 2.552-6.945h1.323l-4.033 10.331c-.189.491-.462.844-.819 1.058-.357.214-.777.322-1.261.322l-.346-.016-.346-.063zm11.817-2.085c-.62 0-1.185-.115-1.694-.345-.509-.23-.945-.538-1.308-.925-.362-.387-.643-.836-.843-1.348-.2-.512-.299-1.05-.299-1.615 0-.575.102-1.118.307-1.63.205-.512.488-.962.851-1.348.362-.387.798-.695 1.308-.925.509-.23 1.069-.345 1.678-.345s1.171.115 1.686.345c.515.23.953.538 1.316.925.362.387.646.836.851 1.348.205.512.307 1.056.307 1.63 0 .565-.1 1.103-.299 1.615-.2.512-.483.962-.851 1.348-.368.387-.806.695-1.316.925-.509.23-1.074.345-1.694.345zm-2.726-4.217c0 .429.071.826.213 1.192.142.366.336.684.583.956.247.272.536.486.866.643.331.157.685.235 1.064.235.378 0 .732-.078 1.063-.235.331-.157.623-.374.875-.65.252-.277.449-.601.591-.972.142-.371.213-.771.213-1.199 0-.418-.071-.813-.213-1.184-.142-.371-.339-.695-.591-.972-.252-.277-.544-.494-.875-.65-.331-.157-.685-.235-1.063-.235-.378 0-.733.081-1.064.243-.331.162-.62.381-.866.658-.247.277-.441.601-.583.972-.142.371-.213.771-.213 1.199zm11.056 4.217c-.861 0-1.513-.287-1.954-.862-.441-.575-.662-1.432-.662-2.571v-4.907h1.387v4.64c0 1.672.583 2.508 1.749 2.508.567 0 1.1-.18 1.599-.541.499-.361.869-.854 1.111-1.481v-5.127h1.387v6.491c0 .324.147.491.441.502v1.191l-.307.047-.245.016c-.315 0-.562-.076-.741-.227-.179-.152-.278-.353-.299-.604l-.048-.988c-.368.617-.851 1.089-1.45 1.419-.599.329-1.255.494-1.969.494zm11.321-7.134c-.693.021-1.305.199-1.836.533-.53.334-.906.8-1.126 1.395v5.048h-1.387v-8.184h1.292v1.897c.284-.564.657-1.032 1.119-1.403.462-.371.956-.557 1.481-.557h.268l.189.016zM34.64 112.479c-.683 0-1.284-.167-1.804-.502-.52-.334-.932-.758-1.237-1.27v4.954h-1.387v-11.523h1.229v1.536c.326-.501.749-.906 1.268-1.215.52-.308 1.095-.463 1.725-.463.567 0 1.087.115 1.56.345.473.23.882.541 1.229.933.347.392.617.844.812 1.356.194.512.292 1.045.292 1.599 0 .585-.089 1.137-.268 1.654-.179.517-.431.967-.756 1.348-.326.381-.714.685-1.166.909-.452.225-.951.337-1.497.337zm-.426-1.192c.41 0 .78-.086 1.111-.259.331-.172.614-.402.851-.69.236-.287.418-.614.544-.98.126-.366.189-.742.189-1.129 0-.408-.073-.797-.22-1.168-.147-.371-.347-.695-.599-.972s-.549-.496-.89-.658c-.341-.162-.712-.243-1.111-.243-.252 0-.512.05-.78.149-.268.099-.52.23-.756.392s-.441.355-.615.58c-.173.225-.286.462-.339.713v2.336c.115.272.262.525.441.76s.383.439.615.611c.231.173.478.308.741.408.263.099.536.149.819.149zm9.425 1.192c-.62 0-1.187-.112-1.702-.337-.515-.225-.956-.53-1.324-.917-.368-.387-.654-.839-.859-1.356-.205-.517-.307-1.063-.307-1.638s.102-1.119.307-1.631c.205-.512.494-.962.866-1.348.373-.387.817-.692 1.331-.917.515-.225 1.082-.337 1.702-.337.62 0 1.184.115 1.694.345.51.23.943.536 1.3.917.357.381.633.826.827 1.333.194.507.291 1.032.291 1.575l-.008.314-.023.22h-6.823c.031.408.126.779.283 1.113.158.334.362.622.615.862.252.24.538.428.859.564.32.136.659.204 1.016.204.252 0 .499-.034.741-.102.242-.068.467-.159.678-.274.21-.115.397-.256.559-.423.163-.167.286-.355.37-.565l1.197.329c-.137.303-.323.58-.559.831-.236.251-.51.468-.819.65-.31.183-.654.327-1.032.431-.378.105-.772.157-1.182.157zm2.82-4.797c-.031-.387-.129-.745-.291-1.074-.163-.329-.368-.609-.615-.839-.247-.23-.533-.41-.859-.541-.326-.131-.672-.196-1.04-.196s-.714.065-1.04.196c-.326.131-.612.314-.859.549-.247.235-.446.515-.599.839-.152.324-.244.679-.276 1.066zm7.182-2.336c-.693.021-1.305.199-1.836.533-.53.334-.906.8-1.126 1.395v5.048h-1.387v-8.184h1.292v1.897c.284-.564.657-1.032 1.119-1.403.462-.371.956-.557 1.481-.557h.268l.189.016zm4.259 7.134c-.662 0-1.313-.102-1.954-.306-.641-.204-1.192-.499-1.655-.886l.599-.925c.483.366.967.64 1.45.823.483.183.993.274 1.529.274.598 0 1.074-.118 1.426-.353.352-.235.528-.567.528-.995 0-.199-.047-.369-.142-.51-.095-.141-.236-.264-.426-.368-.189-.104-.431-.198-.725-.282-.294-.084-.635-.172-1.024-.266-.494-.125-.919-.246-1.276-.361-.357-.115-.651-.251-.882-.408-.231-.157-.399-.345-.504-.565-.105-.22-.158-.491-.158-.815 0-.408.081-.771.244-1.09.163-.319.386-.585.67-.8.284-.214.617-.376 1.001-.486.383-.11.796-.165 1.237-.165.62 0 1.197.099 1.733.298.536.199.988.46 1.355.784l-.63.831c-.347-.303-.736-.53-1.166-.682-.431-.152-.872-.227-1.324-.227-.504 0-.932.107-1.284.322-.352.214-.528.557-.528 1.027 0 .188.034.345.102.471.068.126.181.235.339.329.158.094.36.178.607.251.247.073.544.152.891.235.546.126 1.022.254 1.426.384.404.131.74.285 1.008.462.268.178.467.387.599.627.131.24.197.533.197.878 0 .763-.294 1.369-.882 1.819-.588.449-1.381.674-2.379.674zm8.464 0c-.62 0-1.185-.115-1.694-.345-.509-.23-.945-.538-1.308-.925-.362-.387-.643-.836-.843-1.348-.2-.512-.299-1.05-.299-1.615 0-.575.102-1.118.307-1.63.205-.512.488-.962.851-1.348.362-.387.798-.695 1.308-.925.509-.23 1.069-.345 1.678-.345s1.171.115 1.686.345c.515.23.953.538 1.316.925.362.387.646.836.851 1.348.205.512.307 1.056.307 1.63 0 .565-.1 1.103-.299 1.615-.2.512-.483.962-.851 1.348-.368.387-.806.695-1.316.925-.509.23-1.074.345-1.694.345zm-2.726-4.217c0 .429.071.826.213 1.192.142.366.336.684.583.956.247.272.536.486.866.643.331.157.685.235 1.064.235.378 0 .732-.078 1.063-.235.331-.157.623-.374.875-.65.252-.277.449-.601.591-.972.142-.371.213-.771.213-1.199 0-.418-.071-.813-.213-1.184-.142-.371-.339-.695-.591-.972-.252-.277-.544-.494-.875-.65-.331-.157-.685-.235-1.063-.235-.378 0-.733.081-1.064.243-.331.162-.62.381-.866.658-.247.277-.441.601-.583.972-.142.371-.213.771-.213 1.199zm15.656 4.061h-1.387v-4.578c0-.878-.134-1.516-.402-1.913s-.675-.596-1.221-.596c-.284 0-.567.055-.851.165-.284.11-.551.259-.803.447s-.473.413-.662.674c-.189.261-.331.549-.425.862v4.938h-1.387v-8.184h1.26v1.756c.326-.575.796-1.035 1.41-1.38.615-.345 1.284-.517 2.009-.517.473 0 .867.086 1.182.259.315.173.567.413.756.721.189.308.323.671.402 1.089.079.418.118.873.118 1.364zm4.316.157c-.41 0-.788-.065-1.134-.196-.347-.131-.646-.309-.898-.533-.252-.225-.449-.491-.591-.799-.142-.308-.213-.635-.213-.98 0-.387.084-.74.252-1.058.168-.319.407-.59.717-.815.31-.225.677-.397 1.103-.517.425-.12.89-.18 1.394-.18.399 0 .803.037 1.213.11.41.073.772.172 1.087.298v-.658c0-.669-.189-1.195-.567-1.576-.378-.381-.914-.572-1.607-.572-.83 0-1.702.319-2.615.956l-.457-.894c.536-.355 1.067-.622 1.592-.799.525-.178 1.071-.266 1.639-.266 1.05 0 1.88.287 2.49.862.609.575.914 1.385.914 2.43v3.34c0 .324.147.491.441.502v1.191l-.299.047-.268.016c-.231 0-.457-.063-.678-.188-.221-.125-.341-.34-.362-.643l-.032-.58c-.189.251-.404.47-.646.658-.242.188-.499.345-.772.47s-.554.219-.843.282c-.289.063-.575.094-.859.094zm.347-1.035c.441 0 .872-.094 1.292-.282.42-.188.751-.418.993-.69.199-.23.299-.444.299-.643v-1.207c-.326-.125-.67-.222-1.032-.29-.362-.068-.712-.102-1.048-.102-.714 0-1.287.144-1.717.431-.431.287-.646.682-.646 1.184 0 .209.042.41.126.603.084.193.205.363.362.51.158.146.352.264.583.353.231.089.494.133.788.133zm6.234-10.567h1.386v9.328c0 .303.081.541.244.714.163.172.391.259.685.259.116 0 .252-.018.41-.055.158-.037.305-.081.441-.133l.221 1.113c-.231.094-.504.172-.819.235-.315.063-.594.094-.835.094-.536 0-.958-.152-1.268-.455-.31-.303-.465-.726-.465-1.27zM34.482 131.273l-.331.149-.465.172c-.173.057-.362.104-.567.141-.205.037-.418.055-.638.055-.504 0-.94-.138-1.308-.415-.368-.277-.552-.708-.552-1.293v-5.503h-1.119v-1.082h1.119v-2.728h1.387v2.728h1.843v1.082h-1.843v5.08c.021.303.121.522.299.658.179.136.389.204.63.204.273 0 .523-.044.748-.133.226-.089.381-.159.465-.212zm4.879.565c-.62 0-1.187-.112-1.702-.337-.515-.225-.956-.53-1.324-.917-.368-.387-.654-.839-.859-1.356-.205-.517-.307-1.063-.307-1.638s.102-1.119.307-1.631c.205-.512.494-.962.866-1.348.373-.387.817-.692 1.331-.917.515-.225 1.082-.337 1.702-.337.62 0 1.184.115 1.694.345.51.23.943.536 1.3.917.357.381.633.826.827 1.333.194.507.291 1.032.291 1.575l-.008.314-.023.22h-6.823c.031.408.126.779.283 1.113.158.334.362.622.615.862.252.24.538.428.859.564.32.136.659.204 1.016.204.252 0 .499-.034.741-.102.242-.068.467-.159.678-.274.21-.115.397-.256.559-.423.163-.167.286-.355.37-.565l1.197.329c-.137.303-.323.58-.559.831-.236.251-.51.468-.819.65-.31.183-.654.327-1.032.431-.378.105-.772.157-1.182.157zm2.82-4.797c-.031-.387-.129-.745-.291-1.074-.163-.329-.368-.609-.615-.839-.247-.23-.533-.41-.859-.541-.326-.131-.672-.196-1.04-.196s-.714.065-1.04.196c-.326.131-.612.314-.859.549-.247.235-.446.515-.599.839-.152.324-.244.679-.276 1.066zm2.865-6.804h1.386v9.328c0 .303.081.541.244.714.163.172.391.259.685.259.116 0 .252-.018.41-.055.158-.037.305-.081.441-.133l.221 1.113c-.231.094-.504.172-.819.235-.315.063-.594.094-.835.094-.536 0-.958-.152-1.268-.455-.31-.303-.465-.726-.465-1.27zm8.04 11.602c-.62 0-1.187-.112-1.702-.337-.515-.225-.956-.53-1.324-.917-.368-.387-.654-.839-.859-1.356-.205-.517-.307-1.063-.307-1.638s.102-1.119.307-1.631c.205-.512.494-.962.866-1.348.373-.387.817-.692 1.331-.917.515-.225 1.082-.337 1.702-.337.62 0 1.184.115 1.694.345.51.23.943.536 1.3.917.357.381.633.826.827 1.333.194.507.291 1.032.291 1.575l-.008.314-.023.22h-6.823c.031.408.126.779.283 1.113.158.334.362.622.615.862.252.24.538.428.859.564.32.136.659.204 1.016.204.252 0 .499-.034.741-.102.242-.068.467-.159.678-.274.21-.115.397-.256.559-.423.163-.167.286-.355.37-.565l1.197.329c-.137.303-.323.58-.559.831-.236.251-.51.468-.819.65-.31.183-.654.327-1.032.431-.378.105-.772.157-1.182.157zm2.82-4.797c-.031-.387-.129-.745-.291-1.074-.163-.329-.368-.609-.615-.839-.247-.23-.533-.41-.859-.541-.326-.131-.672-.196-1.04-.196s-.714.065-1.04.196c-.326.131-.612.314-.859.549-.247.235-.446.515-.599.839-.152.324-.244.679-.276 1.066z" font-size="16" class="s0"/><path d="M63.812 131.838c-.683 0-1.284-.167-1.804-.502-.52-.334-.932-.758-1.237-1.27v4.954h-1.387v-11.523h1.229v1.536c.326-.501.749-.906 1.268-1.215.52-.308 1.095-.463 1.725-.463.567 0 1.087.115 1.56.345.473.23.882.541 1.229.933.347.392.617.844.812 1.356.194.512.292 1.045.292 1.599 0 .585-.089 1.137-.268 1.654-.179.517-.431.967-.756 1.348-.326.381-.714.685-1.166.909-.452.225-.951.337-1.497.337zm-.426-1.192c.41 0 .78-.086 1.111-.259.331-.172.614-.402.851-.69.236-.287.418-.614.544-.98.126-.366.189-.742.189-1.129 0-.408-.073-.797-.22-1.168-.147-.371-.347-.695-.599-.972s-.549-.496-.89-.658c-.341-.162-.712-.243-1.111-.243-.252 0-.512.05-.78.149-.268.099-.52.23-.756.392s-.441.355-.615.58c-.173.225-.286.462-.339.713v2.336c.115.272.262.525.441.76s.383.439.615.611c.231.173.478.308.741.408.263.099.536.149.819.149zm10.102-5.942c-.693.021-1.305.199-1.836.533-.53.334-.906.8-1.126 1.395v5.048h-1.387v-8.184h1.292v1.897c.284-.564.657-1.032 1.119-1.403.462-.371.956-.557 1.481-.557h.268l.189.016zm4.969 7.134c-.62 0-1.185-.115-1.694-.345-.509-.23-.945-.538-1.308-.925-.362-.387-.643-.836-.843-1.348-.2-.512-.299-1.05-.299-1.615 0-.575.102-1.118.307-1.63.205-.512.488-.962.851-1.348.362-.387.798-.695 1.308-.925.509-.23 1.069-.345 1.678-.345s1.171.115 1.686.345c.515.23.953.538 1.316.925.362.387.646.836.851 1.348.205.512.307 1.056.307 1.63 0 .565-.1 1.103-.299 1.615-.2.512-.483.962-.851 1.348-.368.387-.806.695-1.316.925-.509.23-1.074.345-1.694.345zm-2.726-4.217c0 .429.071.826.213 1.192.142.366.336.684.583.956.247.272.536.486.866.643.331.157.685.235 1.064.235.378 0 .732-.078 1.063-.235.331-.157.623-.374.875-.65.252-.277.449-.601.591-.972.142-.371.213-.771.213-1.199 0-.418-.071-.813-.213-1.184-.142-.371-.339-.695-.591-.972-.252-.277-.544-.494-.875-.65-.331-.157-.685-.235-1.063-.235-.378 0-.733.081-1.064.243-.331.162-.62.381-.866.658-.247.277-.441.601-.583.972-.142.371-.213.771-.213 1.199zm20.919 4.061h-1.386v-4.578c0-.857-.139-1.489-.418-1.897-.278-.408-.691-.611-1.237-.611-.567 0-1.074.201-1.52.604-.447.402-.764.922-.953 1.56v4.923h-1.387v-4.578c0-.878-.137-1.516-.41-1.913-.273-.397-.683-.596-1.229-.596-.557 0-1.061.196-1.513.588-.452.392-.772.912-.961 1.56v4.938h-1.387v-8.184h1.26v1.756c.336-.606.772-1.074 1.308-1.403.536-.329 1.14-.494 1.812-.494.693 0 1.242.186 1.647.557.404.371.654.849.748 1.435.735-1.328 1.781-1.991 3.136-1.991.473 0 .869.086 1.19.259.32.173.575.413.764.721.189.308.326.671.41 1.089.084.418.126.873.126 1.364zm6.522.157c-.683 0-1.284-.167-1.804-.502-.52-.334-.932-.758-1.237-1.27v4.954h-1.387v-11.523h1.229v1.536c.326-.501.749-.906 1.268-1.215.52-.308 1.095-.463 1.725-.463.567 0 1.087.115 1.56.345.473.23.882.541 1.229.933.347.392.617.844.812 1.356.194.512.292 1.045.292 1.599 0 .585-.089 1.137-.268 1.654-.179.517-.431.967-.756 1.348-.326.381-.714.685-1.166.909-.452.225-.951.337-1.497.337zm-.426-1.192c.41 0 .78-.086 1.111-.259.331-.172.614-.402.851-.69.236-.287.418-.614.544-.98.126-.366.189-.742.189-1.129 0-.408-.073-.797-.22-1.168-.147-.371-.347-.695-.599-.972s-.549-.496-.89-.658c-.341-.162-.712-.243-1.111-.243-.252 0-.512.05-.78.149-.268.099-.52.23-.756.392s-.441.355-.615.58c-.173.225-.286.462-.339.713v2.336c.115.272.262.525.441.76s.383.439.615.611c.231.173.478.308.741.408.263.099.536.149.819.149zm10.023.627l-.331.149-.465.172c-.173.057-.362.104-.567.141-.205.037-.418.055-.638.055-.504 0-.94-.138-1.308-.415-.368-.277-.552-.708-.552-1.293v-5.503h-1.119v-1.082h1.119v-2.728h1.387v2.728h1.843v1.082h-1.843v5.08c.021.303.121.522.299.658.179.136.389.204.63.204.273 0 .523-.044.748-.133.226-.089.381-.159.465-.212z" class="s3"/><path d="M118.623 131.838c-.62 0-1.187-.112-1.702-.337-.515-.225-.956-.53-1.324-.917-.368-.387-.654-.839-.859-1.356-.205-.517-.307-1.063-.307-1.638s.102-1.119.307-1.631c.205-.512.494-.962.866-1.348.373-.387.817-.692 1.331-.917.515-.225 1.082-.337 1.702-.337.62 0 1.184.115 1.694.345.51.23.943.536 1.3.917.357.381.633.826.827 1.333.194.507.291 1.032.291 1.575l-.008.314-.023.22h-6.823c.031.408.126.779.283 1.113.158.334.362.622.615.862.252.24.538.428.859.564.32.136.659.204 1.016.204.252 0 .499-.034.741-.102.242-.068.467-.159.678-.274.21-.115.397-.256.559-.423.163-.167.286-.355.37-.565l1.197.329c-.137.303-.323.58-.559.831-.236.251-.51.468-.819.65-.31.183-.654.327-1.032.431-.378.105-.772.157-1.182.157zm2.82-4.797c-.031-.387-.129-.745-.291-1.074-.163-.329-.368-.609-.615-.839-.247-.23-.533-.41-.859-.541-.326-.131-.672-.196-1.04-.196s-.714.065-1.04.196c-.326.131-.612.314-.859.549-.247.235-.446.515-.599.839-.152.324-.244.679-.276 1.066zm7.182-2.336c-.693.021-1.305.199-1.836.533-.53.334-.906.8-1.126 1.395v5.048h-1.387v-8.184h1.292v1.897c.284-.564.657-1.032 1.119-1.403.462-.371.956-.557 1.481-.557h.268l.189.016zm1.25 6.977v-1.756h1.166v1.756z" font-size="16" class="s0"/></svg>