<svg xmlns="http://www.w3.org/2000/svg" width="360" height="336"><g letter-spacing="0" word-spacing="0"><path d="M93.974 335.877c-19.049-6.044-32.593-15.544-40.631-28.511-8.038-12.967-12.062-28.791-12.062-47.472v-40.39c0-14.505-3.353-25.764-10.07-33.786-6.717-8.022-17.127-12.038-31.221-12.038v-10.879c14.094 0 24.504-3.956 31.221-11.868 6.717-7.912 10.08-19.121 10.08-33.626v-40.719c0-18.791 4.024-34.755 12.062-47.882 8.038-13.137 21.582-22.717 40.631-28.761l2.482 7.423c-15.746 5.055-27.387 13.596-34.935 25.634-7.548 12.038-11.311 26.563-11.311 43.596v40.719c0 13.187-2.863 24.286-8.589 33.297-5.726 9.011-14.484 14.895-26.266 17.642 11.782 2.857 20.541 8.851 26.266 17.972 5.726 9.121 8.589 20.22 8.589 33.297v40.39c0 16.923 3.884 31.209 11.642 42.857 7.768 11.648 19.57 20.17 35.425 25.554zM266.076 335.877c19.049-6.044 32.593-15.554 40.631-28.521 8.038-12.967 12.062-28.791 12.062-47.472v-40.39c0-14.505 3.363-25.774 10.08-33.796 6.717-8.022 17.127-12.038 31.221-12.038v-10.879c-14.094 0-24.504-3.956-31.221-11.868-6.717-7.912-10.08-19.121-10.08-33.626v-40.719c0-18.791-4.024-34.755-12.062-47.882-8.038-13.137-21.582-22.717-40.631-28.761l-2.482 7.423c15.746 5.055 27.387 13.596 34.935 25.634 7.548 12.038 11.311 26.563 11.311 43.596v40.719c0 13.187 2.863 24.286 8.589 33.297 5.726 9.011 14.484 14.895 26.266 17.642-11.782 2.857-20.541 8.851-26.266 17.972-5.726 9.121-8.589 20.22-8.589 33.297v40.39c0 16.923-3.884 31.209-11.642 42.857-7.768 11.648-19.57 20.17-35.425 25.554z" style="-inkscape-font-specification:'Roboto Thin, Ultra-Light'" fill="#5cb85d" font-family="Roboto Thin" font-size="337.93" font-weight="200" text-anchor="middle"/><g fill="#5bc0de" font-family="Raleway"><text y="769.08" x="41.01" style="-inkscape-font-specification:Raleway;line-height:125;text-align:start" font-size="29.32" transform="matrix(2.608 0 0 2.603 -2.529 -1740.268)"><tspan y="769.08" x="41.01">9:06</tspan></text><text x="40.06" y="715.77" style="-inkscape-font-specification:Raleway;line-height:125;text-align:start" font-size="31.51" transform="matrix(2.608 0 0 2.603 -2.529 -1740.268)"><tspan x="40.06" y="715.77">free</tspan></text><text y="741.02" x="41.02" style="-inkscape-font-specification:Raleway;line-height:125;text-align:start" font-size="31.51" transform="matrix(2.608 0 0 2.603 -2.529 -1740.268)"><tspan y="741.02" x="41.02">bird</tspan></text></g></g></svg>