<svg xmlns="http://www.w3.org/2000/svg" width="360" height="280"><g stroke-width="2" fill="none"><path d="M223.4 733.2c-5.3 0-9.6 4.3-9.6 9.6v24.2c0 5.3 4.3 9.6 9.6 9.6h119.7c5.3 0 9.6-4.3 9.6-9.6v-24.2c0-5.3-4.3-9.6-9.6-9.6h-12.2l-5.8 5.8c-1.8 1.8-4.1 2.7-6.4 2.7-2.3 0-4.7-.9-6.4-2.7l-5.8-5.8h-42.6c-.3 4.9-4.3 8.7-9.2 8.7h-13.6c-4.9 0-8.9-3.8-9.2-8.7h-8.4zm90.9 21.2c3.3 0 6.1 2.7 6.1 6.1 0 3.3-2.7 6.1-6.1 6.1-3.3 0-6-2.7-6-6.1 0-3.3 2.7-6.1 6-6.1zm21.7 0c3.3 0 6.1 2.7 6.1 6.1 0 3.3-2.7 6.1-6.1 6.1-3.3 0-6-2.7-6-6.1 0-3.3 2.7-6.1 6-6.1z" stroke="#418bca" transform="matrix(2.555 0 0 2.561 -543.825 -1711.216)"/><path d="M318.7 731.4c-1.7 0-3.3-.6-4.6-1.9l-21.9-21.9c-2.5-2.5-3.6-9.2 0-9.2h15.2v-22.1c0-3.6 2.9-6.5 6.5-6.5h9.6c3.6 0 6.5 2.9 6.5 6.5v22.1h15.2c3.6 0 2.5 6.6 0 9.2l-21.9 21.9c-1.3 1.3-3 1.9-4.6 1.9z" stroke="#b55250" transform="matrix(2.555 0 0 2.561 -543.825 -1711.216)"/><path d="M247.8 669.2c-1.7 0-3.3.6-4.6 1.9l-21.9 21.9c-2.5 2.5-3.6 9.2 0 9.2h15.2v22.1c0 3.6 2.9 6.5 6.5 6.5h9.6c3.6 0 6.5-2.9 6.5-6.5v-22.1h15.2c3.6 0 2.5-6.6 0-9.2l-21.9-21.8c-1.3-1.3-3-1.9-4.6-1.9z" stroke="#5cb85d" transform="matrix(2.555 0 0 2.561 -543.825 -1711.216)"/></g></svg>