<svg xmlns="http://www.w3.org/2000/svg" width="360" height="440"><g fill="none"><path d="M239.3 665.2h49.8c9.6 0 17.3 7.7 17.3 17.3v86.3c0 9.6-7.7 17.3-17.3 17.3h-58.3c-9.6 0-17.3-7.7-17.3-17.3v-78.6zM213.6 689.9h8.5c9.6 0 17.3-7.7 17.3-17.2v-7.5z" stroke-linejoin="bevel" stroke-width="2.3" stroke="#418bca" transform="matrix(3.117 0 0 3.119 -662.091 -2071.12)"/><path d="M259.7 683.2h49.8c9.6 0 17.3 7.7 17.3 17.3v86.3c0 9.6-7.7 17.3-17.3 17.3h-58.3c-9.6 0-17.3-7.7-17.3-17.3v-78.6zM233.9 707.9h8.5c9.6 0 17.3-7.7 17.3-17.2v-7.5z" stroke-linejoin="bevel" stroke-width="2.3" stroke="#5bc0de" transform="matrix(3.117 0 0 3.119 -662.091 -2071.12)"/><path d="M273.1 709.4c-1.6 0-3.2.6-4.4 1.8l-21 21c-2.4 2.4-3.5 8.8 0 8.8h14.6v21.2c0 3.5 2.8 6.2 6.2 6.2h9.2c3.5 0 6.2-2.8 6.2-6.2v-21.2h14.6c3.5 0 2.4-6.4 0-8.8l-21-21c-1.2-1.2-2.8-1.8-4.4-1.8z" stroke-width="1.9" stroke="#5cb85d" transform="matrix(3.117 0 0 3.119 -662.091 -2071.12)"/></g></svg>