<svg xmlns:svg="http://www.w3.org/2000/svg" xmlns="http://www.w3.org/2000/svg" width="360" height="235.02" version="1.1"><g transform="translate(-62.857139,-506.86268)"><g transform="translate(-131.01015,0)"><text xml:space="preserve" x="471.76" y="559.15" style="-inkscape-font-specification:Raleway;fill:#c8c8c8;font-family:Raleway;font-size:40;letter-spacing:0;line-height:125;text-align:center;text-anchor:middle;word-spacing:0"><tspan x="471.76" y="559.15" style="-inkscape-font-specification:Raleway;fill:#c8c8c8;font-family:Raleway;font-size:15.8">Give speeches.</tspan></text><text y="578.94" x="471.86" xml:space="preserve" style="-inkscape-font-specification:Raleway;fill:#c8c8c8;font-family:Raleway;font-size:40;letter-spacing:0;line-height:125;text-align:center;text-anchor:middle;word-spacing:0"><tspan y="578.94" x="471.86" style="-inkscape-font-specification:Raleway;fill:#c8c8c8;font-family:Raleway;font-size:15.8">Scroll your text</tspan></text><text xml:space="preserve" x="451.63" y="598.92" style="-inkscape-font-specification:Raleway;fill:#c8c8c8;font-family:Raleway;font-size:40;letter-spacing:0;line-height:125;text-align:center;text-anchor:middle;word-spacing:0"><tspan x="451.63" y="598.92" style="-inkscape-font-specification:Raleway;fill:#c8c8c8;font-family:Raleway;font-size:15.8">with your</tspan></text><text y="618.9" x="448.9" xml:space="preserve" style="-inkscape-font-specification:Raleway;fill:#c8c8c8;font-family:Raleway;font-size:40;letter-spacing:0;line-height:125;text-align:center;text-anchor:middle;word-spacing:0"><tspan y="618.9" x="448.9" style="-inkscape-font-specification:Raleway;fill:#c8c8c8;font-family:Raleway;font-size:15.8">personal</tspan></text><g transform="matrix(1.0000025,0,0,0.99941837,576.8583,-142.78798)"><text transform="scale(0.99970788,1.0002922)" y="781.7" x="-144.87" xml:space="preserve" style="-inkscape-font-specification:Raleway;fill:#c8c8c8;font-family:Raleway;font-size:40;letter-spacing:0;line-height:125;text-align:center;text-anchor:middle;word-spacing:0"><tspan y="781.7" x="-144.87" style="-inkscape-font-specification:Raleway;fill:#c8c8c8;font-family:Raleway;font-size:15.8">tele</tspan></text><text xml:space="preserve" x="-103.44" y="781.7" transform="scale(0.99970788,1.0002922)" style="-inkscape-font-specification:Raleway;fill:#5bc0de;font-family:Raleway;font-size:40;letter-spacing:0;line-height:125;text-align:center;text-anchor:middle;word-spacing:0"><tspan x="-103.44" y="781.7" style="-inkscape-font-specification:Raleway;fill:#5bc0de;font-family:Raleway;font-size:15.8">prompt</tspan></text><text transform="scale(0.99970788,1.0002922)" y="781.7" x="-66.71" xml:space="preserve" style="-inkscape-font-specification:Raleway;fill:#c8c8c8;font-family:Raleway;font-size:40;letter-spacing:0;line-height:125;text-align:center;text-anchor:middle;word-spacing:0"><tspan y="781.7" x="-66.71" style="-inkscape-font-specification:Raleway;fill:#c8c8c8;font-family:Raleway;font-size:15.8">er.</tspan></text></g><text xml:space="preserve" x="456.95" y="539.17" style="-inkscape-font-specification:Raleway;fill:#c8c8c8;font-family:Raleway;font-size:40;letter-spacing:0;line-height:125;text-align:center;text-anchor:middle;word-spacing:0"><tspan x="456.95" y="539.17" style="-inkscape-font-specification:Raleway;fill:#c8c8c8;font-family:Raleway;font-size:15.8">Play music.</tspan></text></g><path d="m294.86 507.48c-21.56 0-41.46 17.57-39.02 39l4.62 40.66c15.67 6.93 26.65 22.58 26.65 40.78 0 11.6-4.47 22.15-11.76 30.08 6.93 8.94 17.15 14.7 29.48 14.7l10.28 0 0-2.21c0-2.56 2.06-4.61 4.62-4.61l37.54 0c2.56 0 4.62 2.06 4.62 4.61l0 2.21 10.28 0c21.56 0 36.58-17.57 39.02-39l9.91-87.22c2.44-21.43-17.46-39-39.02-39l-87.21 0z" style="-inkscape-font-specification:Sans;baseline-shift:baseline;block-progression:tb;direction:ltr;fill:none;font-family:Sans;font-size:medium;letter-spacing:normal;line-height:normal;stroke-width:3.1;stroke:#f5f5f5;text-align:start;text-anchor:start;text-decoration:none;text-indent:0;text-transform:none;word-spacing:normal;writing-mode:lr-tb"/><g transform="matrix(1.969553,0,0,1.9684024,139.63802,-1101.1321)"><path d="m-18.28 816.41c-11.38 0-21.89 9.31-20.59 20.72l5.03 44.31c1.28 11.2 9.22 20.53 20.59 20.53l4.44 0 0-1.59-4.44 0c-10.52 0-17.83-8.55-19.03-19.12L-37.31 836.94C-38.49 826.58-28.8 818-18.28 818L26 818c10.52 0 20.21 8.58 19.03 18.94l-2.37 20.91c0.54-0.25 1.09-0.48 1.66-0.69L46.59 837.13C47.89 825.71 37.38 816.41 26 816.41l-44.28 0zm53.44 76.97c-3.37 4.27-8.29 7-14.22 7l-4.44 0 0 1.59 4.44 0c6.36 0 11.66-2.91 15.31-7.44-0.38-0.37-0.74-0.76-1.09-1.16z" style="-inkscape-font-specification:Sans;baseline-shift:baseline;block-progression:tb;direction:ltr;fill:#f5f5f5;font-family:Sans;font-size:medium;letter-spacing:normal;line-height:normal;text-align:start;text-anchor:start;text-decoration:none;text-indent:0;text-transform:none;word-spacing:normal;writing-mode:lr-tb"/><path d="m-5.69 897.69c-1.3 0-2.34 1.04-2.34 2.34l0 1.97c0 1.3 1.04 2.34 2.34 2.34l6.19 0 0 31.03 6.72 0 0-31.03 6.16 0c1.3 0 2.34-1.04 2.34-2.34l0-1.97c0-1.3-1.04-2.34-2.34-2.34l-19.06 0z" style="fill:none;stroke-width:1.6;stroke:#c8c8c8"/></g><path d="m302.82 740.33-120.87 0c0-33.29 27.06-60.28 60.43-60.28 33.38 0 60.43 26.99 60.43 60.28z" style="fill:none;stroke-width:3.1;stroke:#5bc0de"/><path d="m103.63 505.88c-22.41 0-43.12 18.32-40.56 40.78l9.91 87.22c2.51 22.04 18.15 40.41 40.56 40.41l8.74 0 0-3.14-8.74 0c-20.72 0-35.11-16.84-37.48-37.65L66.15 546.3c-2.32-20.39 16.77-37.28 37.48-37.28l87.21 0c20.72 0 39.81 16.89 37.48 37.28l-4.68 41.15c1.07-0.49 2.15-0.94 3.26-1.35l4.49-39.43c2.56-22.46-18.15-40.78-40.56-40.78l-87.21 0zM208.88 657.39c-6.64 8.4-16.32 13.78-28 13.78l-8.74 0 0 3.14 8.74 0c12.53 0 22.96-5.73 30.16-14.64-0.75-0.74-1.46-1.49-2.15-2.28z" style="-inkscape-font-specification:Sans;baseline-shift:baseline;block-progression:tb;direction:ltr;fill:#f5f5f5;font-family:Sans;font-size:medium;letter-spacing:normal;line-height:normal;text-align:start;text-anchor:start;text-decoration:none;text-indent:0;text-transform:none;word-spacing:normal;writing-mode:lr-tb"/><path d="m128.44 665.88c-2.56 0-4.62 2.06-4.62 4.61l0 3.88c0 2.56 2.06 4.61 4.62 4.61l12.19 0 0 61.08 13.23 0 0-61.08 12.13 0c2.56 0 4.62-2.06 4.62-4.61l0-3.88c0-2.56-2.06-4.61-4.62-4.61l-37.54 0zM319.7 665.88 319.7 665.88c-2.56 0-4.62 2.06-4.62 4.61l0 3.88c0 2.56 2.06 4.61 4.62 4.61l12.19 0 0 61.08 13.23 0 0-61.08 12.13 0c2.56 0 4.62-2.06 4.62-4.61l0-3.88c0-2.56-2.06-4.61-4.62-4.61l-37.54 0z" style="fill:none;stroke-width:3.1;stroke:#c8c8c8"/><path transform="matrix(0.70308552,0,0,0.7012944,641.64005,416.36624)" d="m-504.29 301.65a63.57 63.57 0 1 1-127.14 0 63.57 63.57 0 1 1 127.14 0z" style="fill:none;stroke-width:4.4;stroke:#5bc0de"/><g transform="translate(-323.94929,0)"><text y="559.15" x="471.76" xml:space="preserve" style="-inkscape-font-specification:Raleway;fill:#c8c8c8;font-family:Raleway;font-size:40;letter-spacing:0;line-height:125;text-align:center;text-anchor:middle;word-spacing:0"><tspan y="559.15" x="471.76" style="-inkscape-font-specification:Raleway;fill:#c8c8c8;font-family:Raleway;font-size:15.8">Give speeches.</tspan></text><text xml:space="preserve" x="471.86" y="578.94" style="-inkscape-font-specification:Raleway;fill:#c8c8c8;font-family:Raleway;font-size:40;letter-spacing:0;line-height:125;text-align:center;text-anchor:middle;word-spacing:0"><tspan x="471.86" y="578.94" style="-inkscape-font-specification:Raleway;fill:#c8c8c8;font-family:Raleway;font-size:15.8">Scroll your text</tspan></text><text y="598.92" x="451.63" xml:space="preserve" style="-inkscape-font-specification:Raleway;fill:#c8c8c8;font-family:Raleway;font-size:40;letter-spacing:0;line-height:125;text-align:center;text-anchor:middle;word-spacing:0"><tspan y="598.92" x="451.63" style="-inkscape-font-specification:Raleway;fill:#c8c8c8;font-family:Raleway;font-size:15.8">with your</tspan></text><text xml:space="preserve" x="448.9" y="618.9" style="-inkscape-font-specification:Raleway;fill:#c8c8c8;font-family:Raleway;font-size:40;letter-spacing:0;line-height:125;text-align:center;text-anchor:middle;word-spacing:0"><tspan x="448.9" y="618.9" style="-inkscape-font-specification:Raleway;fill:#c8c8c8;font-family:Raleway;font-size:15.8">personal</tspan></text><g transform="matrix(1.0000025,0,0,0.99941837,576.8583,-142.78798)"><text xml:space="preserve" x="-144.87" y="781.7" transform="scale(0.99970788,1.0002922)" style="-inkscape-font-specification:Raleway;fill:#c8c8c8;font-family:Raleway;font-size:40;letter-spacing:0;line-height:125;text-align:center;text-anchor:middle;word-spacing:0"><tspan x="-144.87" y="781.7" style="-inkscape-font-specification:Raleway;fill:#c8c8c8;font-family:Raleway;font-size:15.8">tele</tspan></text><text transform="scale(0.99970788,1.0002922)" y="781.7" x="-103.44" xml:space="preserve" style="-inkscape-font-specification:Raleway;fill:#5bc0de;font-family:Raleway;font-size:40;letter-spacing:0;line-height:125;text-align:center;text-anchor:middle;word-spacing:0"><tspan y="781.7" x="-103.44" style="-inkscape-font-specification:Raleway;fill:#5bc0de;font-family:Raleway;font-size:15.8">prompt</tspan></text><text xml:space="preserve" x="-66.71" y="781.7" transform="scale(0.99970788,1.0002922)" style="-inkscape-font-specification:Raleway;fill:#c8c8c8;font-family:Raleway;font-size:40;letter-spacing:0;line-height:125;text-align:center;text-anchor:middle;word-spacing:0"><tspan x="-66.71" y="781.7" style="-inkscape-font-specification:Raleway;fill:#c8c8c8;font-family:Raleway;font-size:15.8">er.</tspan></text></g><text y="539.17" x="456.95" xml:space="preserve" style="-inkscape-font-specification:Raleway;fill:#c8c8c8;font-family:Raleway;font-size:40;letter-spacing:0;line-height:125;text-align:center;text-anchor:middle;word-spacing:0"><tspan y="539.17" x="456.95" style="-inkscape-font-specification:Raleway;fill:#c8c8c8;font-family:Raleway;font-size:15.8">Play music.</tspan></text></g></g></svg>