<svg xmlns:svg="http://www.w3.org/2000/svg" xmlns="http://www.w3.org/2000/svg" width="360" height="336" version="1.1"><g transform="translate(40,-361.78454)"><g transform="scale(1.0008315,0.99916916)" style="-inkscape-font-specification:'Roboto Thin, Ultra-Light';fill:#5cb85d;font-family:Roboto Thin;font-size:337.93;font-weight:200;letter-spacing:0;line-height:125;text-align:center;text-anchor:middle;word-spacing:0;writing-mode:lr-tb"><path d="M53.92 698.36C34.89 692.31 21.36 682.8 13.33 669.82 5.3 656.84 1.28 641 1.28 622.3l0-40.43C1.28 567.35-2.07 556.08-8.78 548.05-15.49 540.02-25.89 536-39.97 536l0-10.89c14.08 0 24.48-3.96 31.19-11.88 6.71-7.92 10.07-19.14 10.07-33.66l0-40.76c0-18.81 4.02-34.79 12.05-47.93 8.03-13.15 21.56-22.74 40.59-28.79l2.48 7.43c-15.73 5.06-27.36 13.61-34.9 25.66-7.54 12.05-11.3 26.59-11.3 43.64l0 40.76c0 13.2-2.86 24.31-8.58 33.33-5.72 9.02-14.47 14.91-26.24 17.66 11.77 2.86 20.52 8.86 26.24 17.99 5.72 9.13 8.58 20.24 8.58 33.33l0 40.43c0 16.94 3.88 31.24 11.63 42.9 7.76 11.66 19.55 20.19 35.39 25.58z" style="-inkscape-font-specification:'Roboto Thin, Ultra-Light';fill:#5cb85d;font-family:Roboto Thin"/></g><g transform="scale(-1.0008315,0.99916916)" style="-inkscape-font-specification:'Roboto Thin, Ultra-Light';fill:#5cb85d;font-family:Roboto Thin;font-size:337.93;font-weight:200;letter-spacing:0;line-height:125;text-align:center;text-anchor:middle;word-spacing:0;writing-mode:lr-tb"><path d="m-225.85 698.36c-19.03-6.05-32.56-15.57-40.59-28.55-8.03-12.98-12.05-28.82-12.05-47.52l0-40.43c0-14.52-3.36-25.8-10.07-33.83-6.71-8.03-17.11-12.05-31.19-12.05l0-10.89c14.08 0 24.48-3.96 31.19-11.88 6.71-7.92 10.07-19.14 10.07-33.66l0-40.76c0-18.81 4.02-34.79 12.05-47.93 8.03-13.15 21.56-22.74 40.59-28.79l2.48 7.43c-15.73 5.06-27.36 13.61-34.9 25.66-7.54 12.05-11.3 26.59-11.3 43.64l0 40.76c0 13.2-2.86 24.31-8.58 33.33-5.72 9.02-14.47 14.91-26.24 17.66 11.77 2.86 20.52 8.86 26.24 17.99 5.72 9.13 8.58 20.24 8.58 33.33l0 40.43c0 16.94 3.88 31.24 11.63 42.9 7.76 11.66 19.55 20.19 35.39 25.58z" style="-inkscape-font-specification:'Roboto Thin, Ultra-Light';fill:#5cb85d;font-family:Roboto Thin"/></g><g transform="matrix(2.6076217,0,0,2.6032905,-42.529062,-1378.4829)"><text y="769.08" x="41.01" xml:space="preserve" style="-inkscape-font-specification:Raleway;fill:#5bc0de;font-family:Raleway;font-size:29.32;letter-spacing:0;line-height:125;text-align:start;text-anchor:start;word-spacing:0;writing-mode:lr-tb"><tspan y="769.08" x="41.01">9:06</tspan></text><text xml:space="preserve" x="40.06" y="715.77" style="-inkscape-font-specification:Raleway;fill:#5bc0de;font-family:Raleway;font-size:31.51;letter-spacing:0;line-height:125;text-align:start;text-anchor:start;word-spacing:0;writing-mode:lr-tb"><tspan x="40.06" y="715.77">free</tspan></text><text y="741.02" x="41.02" xml:space="preserve" style="-inkscape-font-specification:Raleway;fill:#5bc0de;font-family:Raleway;font-size:31.51;letter-spacing:0;line-height:125;text-align:start;text-anchor:start;word-spacing:0;writing-mode:lr-tb"><tspan y="741.02" x="41.02">bird</tspan></text></g></g></svg>