<svg xmlns:svg="http://www.w3.org/2000/svg" xmlns="http://www.w3.org/2000/svg" width="359.9375" height="464.9375" version="1.1"><style>.s0{fill:none;stroke-linejoin:bevel;stroke-width:7;stroke:#b55250;}.s1{fill:none;stroke-linejoin:bevel;stroke-width:8.5;stroke:#418bca;}.s2{fill:none;stroke-linejoin:bevel;stroke-width:7;stroke:#5cb85d;}.s3{fill:none;stroke-linejoin:bevel;stroke-width:7;stroke:#efad4d;}.s4{fill:none;stroke-linecap:round;stroke-width:8.5;stroke:#418bca;}</style><g transform="translate(-188.63024,-8.481866)"><g transform="translate(-684.55726,-64.268134)"><g transform="matrix(1.2143495,0,0,1.2120085,-175.91261,-117.66955)"><path d="m1105.8571 277.86149-39.626-0.00001c-7.605-0.00001-13.7274-6.12246-13.7274-13.72747l0.0001-45.1271c-0.0001-7.60503 6.1223-13.72747 13.7273-13.72746l46.3907 0.00001c7.6049-0.00002 13.7274 6.12243 13.7274 13.72743l0 39.02975zM1126.3557 258.20796l-6.7295 0c-7.6051-0.00001-13.7373 6.10443-13.7373 13.70945l0 5.95096z" class="s0"/></g><path d="m974.95225 76.996787 188.59585 0c36.1953 0 65.3344 29.082993 65.3344 65.208503l0 326.04192c0 36.12549-29.1391 65.20849-65.3344 65.20849l-220.79126 0c-36.19526 0-65.33442-29.083-65.33442-65.20849l0-297.07792z" class="s1"/><path d="m877.39112 170.3554 32.02879 0c36.19529 0 65.38113-28.99746 65.38113-65.12298l0-28.268393z" class="s1"/><g transform="matrix(1.2143495,0,0,1.2120085,-171.33038,-94.571153)"><path d="m1102.0837 366.01472-39.626-0.00001c-7.605-0.00001-13.7274-6.12246-13.7274-13.72747l0.0001-45.1271c-0.0001-7.60503 6.1223-13.72747 13.7273-13.72746l46.3907 0.00001c7.6049-0.00002 13.7274 6.12243 13.7274 13.72743l0 39.02975zM1122.5823 346.36119l-6.7295 0c-7.6051-0.00001-13.7373 6.10443-13.7373 13.70945l0 5.95096z" class="s2"/></g><g transform="matrix(1.2143495,0,0,1.2120085,-171.33038,-82.164408)"><path d="m1102.0837 462.98937-39.626-0.00001c-7.605-0.00001-13.7274-6.12246-13.7274-13.72747l0.0001-45.1271c-0.0001-7.60503 6.1223-13.72747 13.7273-13.72746l46.3907 0.00001c7.6049-0.00002 13.7274 6.12243 13.7274 13.72743l0 39.02975zM1122.5823 443.33584l-6.7295 0c-7.6051-0.00001-13.7373 6.10443-13.7373 13.70945l0 5.95096z" class="s3"/></g><path d="m1070.3917 131.13093-100.56419 0M1070.3917 165.59535l-132.7645 0M1070.3917 200.05977l-149.01799 0M1070.3917 234.52419l-149.01799 0M1070.3917 268.98861l-149.01799 0M1070.3917 303.45302l-149.01799 0M1070.3917 337.91744l-149.01799 0M1070.3917 372.38188l-149.01799 0M1070.3917 406.84629l-149.01799 0M1070.3917 441.31071l-149.01799 0M1070.3917 475.77513l-149.01799 0" class="s4"/><path d="m877.39112 170.3554 32.02879 0c36.19529 0 65.38113-28.99746 65.38113-65.12298l0-28.268393z" class="s1"/></g></g></svg>