<svg xmlns:svg="http://www.w3.org/2000/svg" xmlns="http://www.w3.org/2000/svg" width="360" height="280" version="1.1"><g transform="translate(19.999998,-477.78884)"><g transform="matrix(2.5554195,0,0,2.5607426,-563.82521,-1233.4274)"><path d="m223.4 733.2c-5.3 0-9.6 4.3-9.6 9.6l0 24.2c0 5.3 4.3 9.6 9.6 9.6l119.7 0c5.3 0 9.6-4.3 9.6-9.6l0-24.2c0-5.3-4.3-9.6-9.6-9.6l-12.2 0-5.8 5.8c-1.8 1.8-4.1 2.7-6.4 2.7-2.3 0-4.7-0.9-6.4-2.7l-5.8-5.8-42.6 0c-0.3 4.9-4.3 8.7-9.2 8.7l-13.6 0c-4.9 0-8.9-3.8-9.2-8.7l-8.4 0zm90.9 21.2c3.3 0 6.1 2.7 6.1 6.1 0 3.3-2.7 6.1-6.1 6.1-3.3 0-6-2.7-6-6.1 0-3.3 2.7-6.1 6-6.1zm21.7 0c3.3 0 6.1 2.7 6.1 6.1 0 3.3-2.7 6.1-6.1 6.1-3.3 0-6-2.7-6-6.1 0-3.3 2.7-6.1 6-6.1z" style="fill:none;stroke-width:2;stroke:#418bca"/><path d="m318.7 731.4c-1.7 0-3.3-0.6-4.6-1.9l-21.9-21.9c-2.5-2.5-3.6-9.2 0-9.2l15.2 0 0-22.1c0-3.6 2.9-6.5 6.5-6.5l9.6 0c3.6 0 6.5 2.9 6.5 6.5l0 22.1 15.2 0c3.6 0 2.5 6.6 0 9.2l-21.9 21.9c-1.3 1.3-3 1.9-4.6 1.9z" style="fill:none;stroke-width:2;stroke:#b55250"/><path d="m247.8 669.2c-1.7 0-3.3 0.6-4.6 1.9l-21.9 21.9c-2.5 2.5-3.6 9.2 0 9.2l15.2 0 0 22.1c0 3.6 2.9 6.5 6.5 6.5l9.6 0c3.6 0 6.5-2.9 6.5-6.5l0-22.1 15.2 0c3.6 0 2.5-6.6 0-9.2L252.4 671.2c-1.3-1.3-3-1.9-4.6-1.9z" style="fill:none;stroke-width:2;stroke:#5cb85d"/></g></g></svg>