<svg xmlns:svg="http://www.w3.org/2000/svg" xmlns="http://www.w3.org/2000/svg" width="360" height="440" version="1.1"><g transform="translate(0,-612.36218)"><g transform="matrix(3.1168028,0,0,3.1188319,-662.09099,-1458.7583)"><path d="m239.3 665.2 49.8 0c9.6 0 17.3 7.7 17.3 17.3l0 86.3c0 9.6-7.7 17.3-17.3 17.3l-58.3 0c-9.6 0-17.3-7.7-17.3-17.3l0-78.6z" style="fill:none;stroke-linejoin:bevel;stroke-width:2.3;stroke:#418bca"/><path d="m213.6 689.9 8.5 0c9.6 0 17.3-7.7 17.3-17.2l0-7.5z" style="fill:none;stroke-linejoin:bevel;stroke-width:2.3;stroke:#418bca"/><path d="m259.7 683.2 49.8 0c9.6 0 17.3 7.7 17.3 17.3l0 86.3c0 9.6-7.7 17.3-17.3 17.3l-58.3 0c-9.6 0-17.3-7.7-17.3-17.3l0-78.6z" style="fill:none;stroke-linejoin:bevel;stroke-width:2.3;stroke:#5bc0de"/><path d="m233.9 707.9 8.5 0c9.6 0 17.3-7.7 17.3-17.2l0-7.5z" style="fill:none;stroke-linejoin:bevel;stroke-width:2.3;stroke:#5bc0de"/><path d="m273.1 709.4c-1.6 0-3.2 0.6-4.4 1.8l-21 21c-2.4 2.4-3.5 8.8 0 8.8l14.6 0 0 21.2c0 3.5 2.8 6.2 6.2 6.2l9.2 0c3.5 0 6.2-2.8 6.2-6.2l0-21.2 14.6 0c3.5 0 2.4-6.4 0-8.8l-21-21c-1.2-1.2-2.8-1.8-4.4-1.8z" style="fill:none;stroke-width:1.9;stroke:#5cb85d"/></g></g></svg>